<svg width="448" height="100" viewBox="0 0 448 100" fill="none" xmlns="http://www.w3.org/2000/svg">
<path d="M146.363 55.0918L147.154 59.0645L148.121 55.2676L153.676 36.4062H155.627L161.111 55.2676L162.061 59.0996L162.904 55.0918L167.527 36.4062H169.742L163.186 62H161.111L155.311 41.9785L154.66 39.4473L154.027 41.9785L148.086 62H146.012L139.473 36.4062H141.688L146.363 55.0918ZM184.824 62C184.613 61.4023 184.479 60.5176 184.42 59.3457C183.682 60.3066 182.738 61.0508 181.59 61.5781C180.453 62.0938 179.246 62.3516 177.969 62.3516C176.141 62.3516 174.658 61.8418 173.521 60.8223C172.396 59.8027 171.834 58.5137 171.834 56.9551C171.834 55.1035 172.602 53.6387 174.137 52.5605C175.684 51.4824 177.834 50.9434 180.588 50.9434H184.402V48.7812C184.402 47.4219 183.98 46.3555 183.137 45.582C182.305 44.7969 181.086 44.4043 179.48 44.4043C178.016 44.4043 176.803 44.7793 175.842 45.5293C174.881 46.2793 174.4 47.1816 174.4 48.2363L172.291 48.2188C172.291 46.707 172.994 45.4004 174.4 44.2988C175.807 43.1855 177.535 42.6289 179.586 42.6289C181.707 42.6289 183.377 43.1621 184.596 44.2285C185.826 45.2832 186.459 46.7598 186.494 48.6582V57.6582C186.494 59.498 186.688 60.875 187.074 61.7891V62H184.824ZM178.215 60.4883C179.621 60.4883 180.875 60.1484 181.977 59.4688C183.09 58.7891 183.898 57.8809 184.402 56.7441V52.5605H180.641C178.543 52.584 176.902 52.9707 175.719 53.7207C174.535 54.459 173.943 55.4785 173.943 56.7793C173.943 57.8457 174.336 58.7305 175.121 59.4336C175.918 60.1367 176.949 60.4883 178.215 60.4883ZM195.389 38.1113V42.9805H199.326V44.7031H195.389V57.377C195.389 58.4316 195.576 59.2168 195.951 59.7324C196.338 60.248 196.977 60.5059 197.867 60.5059C198.219 60.5059 198.787 60.4473 199.572 60.3301L199.66 62.0527C199.109 62.252 198.359 62.3516 197.41 62.3516C195.969 62.3516 194.92 61.9355 194.264 61.1035C193.607 60.2598 193.279 59.0234 193.279 57.3945V44.7031H189.781V42.9805H193.279V38.1113H195.389ZM210.717 60.5762C212.182 60.5762 213.406 60.166 214.391 59.3457C215.387 58.5137 215.926 57.4414 216.008 56.1289H218.029C217.971 57.2891 217.607 58.3496 216.939 59.3105C216.271 60.2598 215.381 61.0039 214.268 61.543C213.166 62.082 211.982 62.3516 210.717 62.3516C208.221 62.3516 206.24 61.4844 204.775 59.75C203.322 58.0156 202.596 55.6836 202.596 52.7539V52.1211C202.596 50.2461 202.924 48.5879 203.58 47.1465C204.236 45.7051 205.174 44.5918 206.393 43.8066C207.623 43.0215 209.059 42.6289 210.699 42.6289C212.785 42.6289 214.502 43.25 215.85 44.4922C217.209 45.7344 217.936 47.3691 218.029 49.3965H216.008C215.914 47.9082 215.375 46.707 214.391 45.793C213.418 44.8789 212.188 44.4219 210.699 44.4219C208.801 44.4219 207.324 45.1074 206.27 46.4785C205.227 47.8496 204.705 49.7715 204.705 52.2441V52.8594C204.705 55.2852 205.227 57.1777 206.27 58.5371C207.324 59.8965 208.807 60.5762 210.717 60.5762ZM224.34 46.1973C225.031 45.0605 225.916 44.1816 226.994 43.5605C228.072 42.9395 229.25 42.6289 230.527 42.6289C232.566 42.6289 234.084 43.2031 235.08 44.3516C236.076 45.5 236.58 47.2227 236.592 49.5195V62H234.5V49.502C234.488 47.8027 234.125 46.5371 233.41 45.7051C232.707 44.873 231.576 44.457 230.018 44.457C228.717 44.457 227.562 44.8672 226.555 45.6875C225.559 46.4961 224.82 47.5918 224.34 48.9746V62H222.248V35H224.34V46.1973ZM252.852 46.1973C253.543 45.0605 254.428 44.1816 255.506 43.5605C256.584 42.9395 257.762 42.6289 259.039 42.6289C261.078 42.6289 262.596 43.2031 263.592 44.3516C264.588 45.5 265.092 47.2227 265.104 49.5195V62H263.012V49.502C263 47.8027 262.637 46.5371 261.922 45.7051C261.219 44.873 260.088 44.457 258.529 44.457C257.229 44.457 256.074 44.8672 255.066 45.6875C254.07 46.4961 253.332 47.5918 252.852 48.9746V62H250.76V35H252.852V46.1973ZM269.357 52.209C269.357 50.3809 269.709 48.7344 270.412 47.2695C271.127 45.8047 272.129 44.668 273.418 43.8594C274.719 43.0391 276.189 42.6289 277.83 42.6289C280.361 42.6289 282.412 43.5195 283.982 45.3008C285.553 47.0703 286.338 49.4199 286.338 52.3496V52.7891C286.338 54.6289 285.98 56.2871 285.266 57.7637C284.562 59.2285 283.566 60.3594 282.277 61.1562C280.988 61.9531 279.518 62.3516 277.865 62.3516C275.346 62.3516 273.295 61.4668 271.713 59.6973C270.143 57.916 269.357 55.5605 269.357 52.6309V52.209ZM271.467 52.7891C271.467 55.0625 272.053 56.9316 273.225 58.3965C274.408 59.8496 275.955 60.5762 277.865 60.5762C279.764 60.5762 281.299 59.8496 282.471 58.3965C283.654 56.9316 284.246 55.0039 284.246 52.6133V52.209C284.246 50.7559 283.977 49.4258 283.438 48.2188C282.898 47.0117 282.143 46.0801 281.17 45.4238C280.197 44.7559 279.084 44.4219 277.83 44.4219C275.955 44.4219 274.426 45.1602 273.242 46.6367C272.059 48.1016 271.467 50.0234 271.467 52.4023V52.7891ZM295.25 57.623L295.566 59.2578L295.988 57.5352L300.559 42.9805H302.352L306.869 57.4121L307.361 59.416L307.766 57.5703L311.668 42.9805H313.848L308.311 62H306.518L301.631 46.918L301.402 45.8809L301.174 46.9355L296.375 62H294.582L289.062 42.9805H291.225L295.25 57.623ZM328.947 62H326.838V42.9805H328.947V62ZM326.469 37.4785C326.469 37.0801 326.598 36.7461 326.855 36.4766C327.113 36.1953 327.465 36.0547 327.91 36.0547C328.355 36.0547 328.707 36.1953 328.965 36.4766C329.234 36.7461 329.369 37.0801 329.369 37.4785C329.369 37.877 329.234 38.2109 328.965 38.4805C328.707 38.75 328.355 38.8848 327.91 38.8848C327.465 38.8848 327.113 38.75 326.855 38.4805C326.598 38.2109 326.469 37.877 326.469 37.4785ZM337.947 38.1113V42.9805H341.885V44.7031H337.947V57.377C337.947 58.4316 338.135 59.2168 338.51 59.7324C338.896 60.248 339.535 60.5059 340.426 60.5059C340.777 60.5059 341.346 60.4473 342.131 60.3301L342.219 62.0527C341.668 62.252 340.918 62.3516 339.969 62.3516C338.527 62.3516 337.479 61.9355 336.822 61.1035C336.166 60.2598 335.838 59.0234 335.838 57.3945V44.7031H332.34V42.9805H335.838V38.1113H337.947ZM357.635 57.166C357.635 56.123 357.213 55.2852 356.369 54.6523C355.537 54.0195 354.277 53.5273 352.59 53.1758C350.902 52.8125 349.59 52.4023 348.652 51.9453C347.727 51.4766 347.035 50.9082 346.578 50.2402C346.133 49.5723 345.91 48.7637 345.91 47.8145C345.91 46.3145 346.537 45.0781 347.791 44.1055C349.045 43.1211 350.65 42.6289 352.607 42.6289C354.729 42.6289 356.428 43.1562 357.705 44.2109C358.994 45.2539 359.639 46.6191 359.639 48.3066H357.529C357.529 47.1934 357.061 46.2676 356.123 45.5293C355.197 44.791 354.025 44.4219 352.607 44.4219C351.225 44.4219 350.111 44.7324 349.268 45.3535C348.436 45.9629 348.02 46.7598 348.02 47.7441C348.02 48.6934 348.365 49.4316 349.057 49.959C349.76 50.4746 351.031 50.9492 352.871 51.3828C354.723 51.8164 356.105 52.2793 357.02 52.7715C357.945 53.2637 358.631 53.8555 359.076 54.5469C359.521 55.2383 359.744 56.0762 359.744 57.0605C359.744 58.666 359.094 59.9492 357.793 60.9102C356.504 61.8711 354.816 62.3516 352.73 62.3516C350.516 62.3516 348.717 61.8184 347.334 60.752C345.963 59.6738 345.277 58.3145 345.277 56.6738H347.387C347.469 57.9043 347.984 58.8652 348.934 59.5566C349.895 60.2363 351.16 60.5762 352.73 60.5762C354.195 60.5762 355.379 60.2539 356.281 59.6094C357.184 58.9648 357.635 58.1504 357.635 57.166ZM377.797 57.623L378.113 59.2578L378.535 57.5352L383.105 42.9805H384.898L389.416 57.4121L389.908 59.416L390.312 57.5703L394.215 42.9805H396.395L390.857 62H389.064L384.178 46.918L383.949 45.8809L383.721 46.9355L378.922 62H377.129L371.609 42.9805H373.771L377.797 57.623ZM399.225 52.209C399.225 50.3809 399.576 48.7344 400.279 47.2695C400.994 45.8047 401.996 44.668 403.285 43.8594C404.586 43.0391 406.057 42.6289 407.697 42.6289C410.229 42.6289 412.279 43.5195 413.85 45.3008C415.42 47.0703 416.205 49.4199 416.205 52.3496V52.7891C416.205 54.6289 415.848 56.2871 415.133 57.7637C414.43 59.2285 413.434 60.3594 412.145 61.1562C410.855 61.9531 409.385 62.3516 407.732 62.3516C405.213 62.3516 403.162 61.4668 401.58 59.6973C400.01 57.916 399.225 55.5605 399.225 52.6309V52.209ZM401.334 52.7891C401.334 55.0625 401.92 56.9316 403.092 58.3965C404.275 59.8496 405.822 60.5762 407.732 60.5762C409.631 60.5762 411.166 59.8496 412.338 58.3965C413.521 56.9316 414.113 55.0039 414.113 52.6133V52.209C414.113 50.7559 413.844 49.4258 413.305 48.2188C412.766 47.0117 412.01 46.0801 411.037 45.4238C410.064 44.7559 408.951 44.4219 407.697 44.4219C405.822 44.4219 404.293 45.1602 403.109 46.6367C401.926 48.1016 401.334 50.0234 401.334 52.4023V52.7891ZM429.354 44.7734C428.908 44.6914 428.434 44.6504 427.93 44.6504C426.617 44.6504 425.504 45.0195 424.59 45.7578C423.688 46.4844 423.043 47.5449 422.656 48.9395V62H420.564V42.9805H422.621L422.656 46.0039C423.77 43.7539 425.557 42.6289 428.018 42.6289C428.604 42.6289 429.066 42.7051 429.406 42.8574L429.354 44.7734ZM437.211 52.4199L434.803 54.7402V62H432.693V35H434.803V52.2793L436.789 50.1348L444.066 42.9805H446.721L438.652 50.9961L447.424 62H444.91L437.211 52.4199Z" fill="black"/>
<g filter="url(#filter0_d_605_6)">
<circle cx="50" cy="50" r="45" fill="white"/>
<path d="M75 50L37.5 71.6506L37.5 28.3494L75 50Z" fill="#00E0FF"/>
</g>
<defs>
<filter id="filter0_d_605_6" x="0" y="0" width="100" height="100" filterUnits="userSpaceOnUse" color-interpolation-filters="sRGB">
<feFlood flood-opacity="0" result="BackgroundImageFix"/>
<feColorMatrix in="SourceAlpha" type="matrix" values="0 0 0 0 0 0 0 0 0 0 0 0 0 0 0 0 0 0 127 0" result="hardAlpha"/>
<feOffset/>
<feGaussianBlur stdDeviation="2.5"/>
<feComposite in2="hardAlpha" operator="out"/>
<feColorMatrix type="matrix" values="0 0 0 0 0 0 0 0 0 0 0 0 0 0 0 0 0 0 0.25 0"/>
<feBlend mode="normal" in2="BackgroundImageFix" result="effect1_dropShadow_605_6"/>
<feBlend mode="normal" in="SourceGraphic" in2="effect1_dropShadow_605_6" result="shape"/>
</filter>
</defs>
</svg>
