<svg width="637" height="479" viewBox="0 0 637 479" fill="none" xmlns="http://www.w3.org/2000/svg">
<path d="M129.126 454.512C130.607 454.512 131.927 454.849 133.086 455.524C134.244 456.184 135.139 457.108 135.77 458.296C136.415 459.469 136.738 460.811 136.738 462.322C136.738 463.833 136.415 465.182 135.77 466.37C135.139 467.543 134.244 468.467 133.086 469.142C131.927 469.802 130.607 470.132 129.126 470.132C127.63 470.132 126.302 469.802 125.144 469.142C123.985 468.467 123.083 467.543 122.438 466.37C121.792 465.182 121.47 463.833 121.47 462.322C121.47 460.811 121.792 459.469 122.438 458.296C123.083 457.108 123.985 456.184 125.144 455.524C126.302 454.849 127.63 454.512 129.126 454.512ZM129.126 455.392C127.762 455.392 126.574 455.685 125.562 456.272C124.55 456.844 123.772 457.651 123.23 458.692C122.687 459.733 122.416 460.943 122.416 462.322C122.416 463.686 122.687 464.896 123.23 465.952C123.772 466.993 124.55 467.807 125.562 468.394C126.574 468.981 127.762 469.274 129.126 469.274C130.475 469.274 131.648 468.981 132.646 468.394C133.658 467.807 134.435 466.993 134.978 465.952C135.52 464.896 135.792 463.686 135.792 462.322C135.792 460.943 135.52 459.733 134.978 458.692C134.435 457.651 133.658 456.844 132.646 456.272C131.648 455.685 130.475 455.392 129.126 455.392ZM129.082 457.218C128.202 457.218 127.395 457.423 126.662 457.834C125.943 458.245 125.371 458.839 124.946 459.616C124.52 460.379 124.308 461.273 124.308 462.3C124.308 463.327 124.52 464.229 124.946 465.006C125.371 465.769 125.943 466.363 126.662 466.788C127.395 467.199 128.202 467.404 129.082 467.404C130.182 467.404 131.135 467.111 131.942 466.524C132.748 465.923 133.298 465.123 133.592 464.126H131.744C131.304 465.343 130.416 465.952 129.082 465.952C128.202 465.952 127.483 465.637 126.926 465.006C126.368 464.375 126.09 463.481 126.09 462.322C126.09 461.149 126.368 460.247 126.926 459.616C127.483 458.985 128.202 458.67 129.082 458.67C129.727 458.67 130.284 458.831 130.754 459.154C131.223 459.462 131.553 459.909 131.744 460.496H133.592C133.313 459.455 132.77 458.648 131.964 458.076C131.157 457.504 130.196 457.218 129.082 457.218ZM146.563 468.394C148.426 466.898 149.885 465.673 150.941 464.72C151.997 463.752 152.884 462.747 153.603 461.706C154.336 460.65 154.703 459.616 154.703 458.604C154.703 457.651 154.468 456.903 153.999 456.36C153.544 455.803 152.804 455.524 151.777 455.524C150.78 455.524 150.002 455.839 149.445 456.47C148.902 457.086 148.609 457.915 148.565 458.956H146.629C146.688 457.313 147.186 456.045 148.125 455.15C149.064 454.255 150.274 453.808 151.755 453.808C153.266 453.808 154.461 454.226 155.341 455.062C156.236 455.898 156.683 457.049 156.683 458.516C156.683 459.733 156.316 460.921 155.583 462.08C154.864 463.224 154.043 464.236 153.119 465.116C152.195 465.981 151.014 466.993 149.577 468.152H157.145V469.824H146.563V468.394ZM160.339 461.882C160.339 459.359 160.75 457.394 161.571 455.986C162.392 454.563 163.83 453.852 165.883 453.852C167.922 453.852 169.352 454.563 170.173 455.986C170.994 457.394 171.405 459.359 171.405 461.882C171.405 464.449 170.994 466.443 170.173 467.866C169.352 469.289 167.922 470 165.883 470C163.83 470 162.392 469.289 161.571 467.866C160.75 466.443 160.339 464.449 160.339 461.882ZM169.425 461.882C169.425 460.606 169.337 459.528 169.161 458.648C169 457.753 168.655 457.035 168.127 456.492C167.614 455.949 166.866 455.678 165.883 455.678C164.886 455.678 164.123 455.949 163.595 456.492C163.082 457.035 162.737 457.753 162.561 458.648C162.4 459.528 162.319 460.606 162.319 461.882C162.319 463.202 162.4 464.309 162.561 465.204C162.737 466.099 163.082 466.817 163.595 467.36C164.123 467.903 164.886 468.174 165.883 468.174C166.866 468.174 167.614 467.903 168.127 467.36C168.655 466.817 169 466.099 169.161 465.204C169.337 464.309 169.425 463.202 169.425 461.882ZM174.792 468.394C176.654 466.898 178.114 465.673 179.17 464.72C180.226 463.752 181.113 462.747 181.832 461.706C182.565 460.65 182.932 459.616 182.932 458.604C182.932 457.651 182.697 456.903 182.228 456.36C181.773 455.803 181.032 455.524 180.006 455.524C179.008 455.524 178.231 455.839 177.674 456.47C177.131 457.086 176.838 457.915 176.794 458.956H174.858C174.916 457.313 175.415 456.045 176.354 455.15C177.292 454.255 178.502 453.808 179.984 453.808C181.494 453.808 182.69 454.226 183.57 455.062C184.464 455.898 184.912 457.049 184.912 458.516C184.912 459.733 184.545 460.921 183.812 462.08C183.093 463.224 182.272 464.236 181.348 465.116C180.424 465.981 179.243 466.993 177.806 468.152H185.374V469.824H174.792V468.394ZM188.04 455.92V454.094H192.176V470H190.152V455.92H188.04ZM202.822 462.322C202.822 460.826 203.159 459.484 203.834 458.296C204.509 457.093 205.425 456.155 206.584 455.48C207.757 454.805 209.055 454.468 210.478 454.468C212.15 454.468 213.609 454.871 214.856 455.678C216.103 456.485 217.012 457.629 217.584 459.11H215.186C214.761 458.186 214.145 457.475 213.338 456.976C212.546 456.477 211.593 456.228 210.478 456.228C209.407 456.228 208.447 456.477 207.596 456.976C206.745 457.475 206.078 458.186 205.594 459.11C205.11 460.019 204.868 461.09 204.868 462.322C204.868 463.539 205.11 464.61 205.594 465.534C206.078 466.443 206.745 467.147 207.596 467.646C208.447 468.145 209.407 468.394 210.478 468.394C211.593 468.394 212.546 468.152 213.338 467.668C214.145 467.169 214.761 466.458 215.186 465.534H217.584C217.012 467.001 216.103 468.137 214.856 468.944C213.609 469.736 212.15 470.132 210.478 470.132C209.055 470.132 207.757 469.802 206.584 469.142C205.425 468.467 204.509 467.536 203.834 466.348C203.159 465.16 202.822 463.818 202.822 462.322ZM223.446 453.72V470H221.444V453.72H223.446ZM226.99 463.928C226.99 462.696 227.24 461.618 227.738 460.694C228.237 459.755 228.919 459.029 229.784 458.516C230.664 458.003 231.64 457.746 232.71 457.746C233.766 457.746 234.683 457.973 235.46 458.428C236.238 458.883 236.817 459.455 237.198 460.144V457.944H239.222V470H237.198V467.756C236.802 468.46 236.208 469.047 235.416 469.516C234.639 469.971 233.73 470.198 232.688 470.198C231.618 470.198 230.65 469.934 229.784 469.406C228.919 468.878 228.237 468.137 227.738 467.184C227.24 466.231 226.99 465.145 226.99 463.928ZM237.198 463.95C237.198 463.041 237.015 462.249 236.648 461.574C236.282 460.899 235.783 460.386 235.152 460.034C234.536 459.667 233.854 459.484 233.106 459.484C232.358 459.484 231.676 459.66 231.06 460.012C230.444 460.364 229.953 460.877 229.586 461.552C229.22 462.227 229.036 463.019 229.036 463.928C229.036 464.852 229.22 465.659 229.586 466.348C229.953 467.023 230.444 467.543 231.06 467.91C231.676 468.262 232.358 468.438 233.106 468.438C233.854 468.438 234.536 468.262 235.152 467.91C235.783 467.543 236.282 467.023 236.648 466.348C237.015 465.659 237.198 464.859 237.198 463.95ZM247.753 470.198C246.829 470.198 246.001 470.044 245.267 469.736C244.534 469.413 243.955 468.973 243.529 468.416C243.104 467.844 242.869 467.191 242.825 466.458H244.893C244.952 467.059 245.231 467.551 245.729 467.932C246.243 468.313 246.91 468.504 247.731 468.504C248.494 468.504 249.095 468.335 249.535 467.998C249.975 467.661 250.195 467.235 250.195 466.722C250.195 466.194 249.961 465.805 249.491 465.556C249.022 465.292 248.296 465.035 247.313 464.786C246.419 464.551 245.685 464.317 245.113 464.082C244.556 463.833 244.072 463.473 243.661 463.004C243.265 462.52 243.067 461.889 243.067 461.112C243.067 460.496 243.251 459.931 243.617 459.418C243.984 458.905 244.505 458.501 245.179 458.208C245.854 457.9 246.624 457.746 247.489 457.746C248.824 457.746 249.902 458.083 250.723 458.758C251.545 459.433 251.985 460.357 252.043 461.53H250.041C249.997 460.899 249.741 460.393 249.271 460.012C248.817 459.631 248.201 459.44 247.423 459.44C246.705 459.44 246.133 459.594 245.707 459.902C245.282 460.21 245.069 460.613 245.069 461.112C245.069 461.508 245.194 461.838 245.443 462.102C245.707 462.351 246.03 462.557 246.411 462.718C246.807 462.865 247.35 463.033 248.039 463.224C248.905 463.459 249.609 463.693 250.151 463.928C250.694 464.148 251.156 464.485 251.537 464.94C251.933 465.395 252.139 465.989 252.153 466.722C252.153 467.382 251.97 467.976 251.603 468.504C251.237 469.032 250.716 469.45 250.041 469.758C249.381 470.051 248.619 470.198 247.753 470.198ZM260.128 470.198C259.204 470.198 258.375 470.044 257.642 469.736C256.908 469.413 256.329 468.973 255.904 468.416C255.478 467.844 255.244 467.191 255.2 466.458H257.268C257.326 467.059 257.605 467.551 258.104 467.932C258.617 468.313 259.284 468.504 260.106 468.504C260.868 468.504 261.47 468.335 261.91 467.998C262.35 467.661 262.57 467.235 262.57 466.722C262.57 466.194 262.335 465.805 261.866 465.556C261.396 465.292 260.67 465.035 259.688 464.786C258.793 464.551 258.06 464.317 257.488 464.082C256.93 463.833 256.446 463.473 256.036 463.004C255.64 462.52 255.442 461.889 255.442 461.112C255.442 460.496 255.625 459.931 255.992 459.418C256.358 458.905 256.879 458.501 257.554 458.208C258.228 457.9 258.998 457.746 259.864 457.746C261.198 457.746 262.276 458.083 263.098 458.758C263.919 459.433 264.359 460.357 264.418 461.53H262.416C262.372 460.899 262.115 460.393 261.646 460.012C261.191 459.631 260.575 459.44 259.798 459.44C259.079 459.44 258.507 459.594 258.082 459.902C257.656 460.21 257.444 460.613 257.444 461.112C257.444 461.508 257.568 461.838 257.818 462.102C258.082 462.351 258.404 462.557 258.786 462.718C259.182 462.865 259.724 463.033 260.414 463.224C261.279 463.459 261.983 463.693 262.526 463.928C263.068 464.148 263.53 464.485 263.912 464.94C264.308 465.395 264.513 465.989 264.528 466.722C264.528 467.382 264.344 467.976 263.978 468.504C263.611 469.032 263.09 469.45 262.416 469.758C261.756 470.051 260.993 470.198 260.128 470.198ZM284.417 454.666V456.294H280.237V470H278.235V456.294H274.033V454.666H284.417ZM298.761 463.51C298.761 463.891 298.739 464.295 298.695 464.72H289.059C289.133 465.908 289.536 466.839 290.269 467.514C291.017 468.174 291.919 468.504 292.975 468.504C293.841 468.504 294.559 468.306 295.131 467.91C295.718 467.499 296.129 466.957 296.363 466.282H298.519C298.197 467.441 297.551 468.387 296.583 469.12C295.615 469.839 294.413 470.198 292.975 470.198C291.831 470.198 290.805 469.941 289.895 469.428C289.001 468.915 288.297 468.189 287.783 467.25C287.27 466.297 287.013 465.197 287.013 463.95C287.013 462.703 287.263 461.611 287.761 460.672C288.26 459.733 288.957 459.015 289.851 458.516C290.761 458.003 291.802 457.746 292.975 457.746C294.119 457.746 295.131 457.995 296.011 458.494C296.891 458.993 297.566 459.682 298.035 460.562C298.519 461.427 298.761 462.41 298.761 463.51ZM296.693 463.092C296.693 462.329 296.525 461.677 296.187 461.134C295.85 460.577 295.388 460.159 294.801 459.88C294.229 459.587 293.591 459.44 292.887 459.44C291.875 459.44 291.01 459.763 290.291 460.408C289.587 461.053 289.184 461.948 289.081 463.092H296.693ZM301.536 463.95C301.536 462.703 301.785 461.618 302.284 460.694C302.783 459.755 303.472 459.029 304.352 458.516C305.247 458.003 306.266 457.746 307.41 457.746C308.891 457.746 310.109 458.105 311.062 458.824C312.03 459.543 312.668 460.54 312.976 461.816H310.82C310.615 461.083 310.211 460.503 309.61 460.078C309.023 459.653 308.29 459.44 307.41 459.44C306.266 459.44 305.342 459.836 304.638 460.628C303.934 461.405 303.582 462.513 303.582 463.95C303.582 465.402 303.934 466.524 304.638 467.316C305.342 468.108 306.266 468.504 307.41 468.504C308.29 468.504 309.023 468.299 309.61 467.888C310.197 467.477 310.6 466.891 310.82 466.128H312.976C312.653 467.36 312.008 468.35 311.04 469.098C310.072 469.831 308.862 470.198 307.41 470.198C306.266 470.198 305.247 469.941 304.352 469.428C303.472 468.915 302.783 468.189 302.284 467.25C301.785 466.311 301.536 465.211 301.536 463.95ZM322.511 457.724C323.42 457.724 324.242 457.922 324.975 458.318C325.708 458.699 326.28 459.279 326.691 460.056C327.116 460.833 327.329 461.779 327.329 462.894V470H325.349V463.18C325.349 461.977 325.048 461.061 324.447 460.43C323.846 459.785 323.024 459.462 321.983 459.462C320.927 459.462 320.084 459.792 319.453 460.452C318.837 461.112 318.529 462.073 318.529 463.334V470H316.527V453.72H318.529V459.66C318.925 459.044 319.468 458.567 320.157 458.23C320.861 457.893 321.646 457.724 322.511 457.724ZM337.353 457.724C338.82 457.724 340.008 458.171 340.917 459.066C341.827 459.946 342.281 461.222 342.281 462.894V470H340.301V463.18C340.301 461.977 340.001 461.061 339.399 460.43C338.798 459.785 337.977 459.462 336.935 459.462C335.879 459.462 335.036 459.792 334.405 460.452C333.789 461.112 333.481 462.073 333.481 463.334V470H331.479V457.944H333.481V459.66C333.877 459.044 334.413 458.567 335.087 458.23C335.777 457.893 336.532 457.724 337.353 457.724ZM351.69 470.198C350.56 470.198 349.534 469.941 348.61 469.428C347.7 468.915 346.982 468.189 346.454 467.25C345.94 466.297 345.684 465.197 345.684 463.95C345.684 462.718 345.948 461.633 346.476 460.694C347.018 459.741 347.752 459.015 348.676 458.516C349.6 458.003 350.634 457.746 351.778 457.746C352.922 457.746 353.956 458.003 354.88 458.516C355.804 459.015 356.53 459.733 357.058 460.672C357.6 461.611 357.872 462.703 357.872 463.95C357.872 465.197 357.593 466.297 357.036 467.25C356.493 468.189 355.752 468.915 354.814 469.428C353.875 469.941 352.834 470.198 351.69 470.198ZM351.69 468.438C352.408 468.438 353.083 468.269 353.714 467.932C354.344 467.595 354.85 467.089 355.232 466.414C355.628 465.739 355.826 464.918 355.826 463.95C355.826 462.982 355.635 462.161 355.254 461.486C354.872 460.811 354.374 460.313 353.758 459.99C353.142 459.653 352.474 459.484 351.756 459.484C351.022 459.484 350.348 459.653 349.732 459.99C349.13 460.313 348.646 460.811 348.28 461.486C347.913 462.161 347.73 462.982 347.73 463.95C347.73 464.933 347.906 465.761 348.258 466.436C348.624 467.111 349.108 467.617 349.71 467.954C350.311 468.277 350.971 468.438 351.69 468.438ZM363.386 453.72V470H361.384V453.72H363.386ZM372.936 470.198C371.807 470.198 370.78 469.941 369.856 469.428C368.947 468.915 368.228 468.189 367.7 467.25C367.187 466.297 366.93 465.197 366.93 463.95C366.93 462.718 367.194 461.633 367.722 460.694C368.265 459.741 368.998 459.015 369.922 458.516C370.846 458.003 371.88 457.746 373.024 457.746C374.168 457.746 375.202 458.003 376.126 458.516C377.05 459.015 377.776 459.733 378.304 460.672C378.847 461.611 379.118 462.703 379.118 463.95C379.118 465.197 378.839 466.297 378.282 467.25C377.739 468.189 376.999 468.915 376.06 469.428C375.121 469.941 374.08 470.198 372.936 470.198ZM372.936 468.438C373.655 468.438 374.329 468.269 374.96 467.932C375.591 467.595 376.097 467.089 376.478 466.414C376.874 465.739 377.072 464.918 377.072 463.95C377.072 462.982 376.881 462.161 376.5 461.486C376.119 460.811 375.62 460.313 375.004 459.99C374.388 459.653 373.721 459.484 373.002 459.484C372.269 459.484 371.594 459.653 370.978 459.99C370.377 460.313 369.893 460.811 369.526 461.486C369.159 462.161 368.976 462.982 368.976 463.95C368.976 464.933 369.152 465.761 369.504 466.436C369.871 467.111 370.355 467.617 370.956 467.954C371.557 468.277 372.217 468.438 372.936 468.438ZM387.602 457.746C388.644 457.746 389.553 457.973 390.33 458.428C391.122 458.883 391.709 459.455 392.09 460.144V457.944H394.114V470.264C394.114 471.364 393.88 472.339 393.41 473.19C392.941 474.055 392.266 474.73 391.386 475.214C390.521 475.698 389.509 475.94 388.35 475.94C386.766 475.94 385.446 475.566 384.39 474.818C383.334 474.07 382.711 473.051 382.52 471.76H384.5C384.72 472.493 385.175 473.08 385.864 473.52C386.554 473.975 387.382 474.202 388.35 474.202C389.45 474.202 390.345 473.857 391.034 473.168C391.738 472.479 392.09 471.511 392.09 470.264V467.734C391.694 468.438 391.108 469.025 390.33 469.494C389.553 469.963 388.644 470.198 387.602 470.198C386.532 470.198 385.556 469.934 384.676 469.406C383.811 468.878 383.129 468.137 382.63 467.184C382.132 466.231 381.882 465.145 381.882 463.928C381.882 462.696 382.132 461.618 382.63 460.694C383.129 459.755 383.811 459.029 384.676 458.516C385.556 458.003 386.532 457.746 387.602 457.746ZM392.09 463.95C392.09 463.041 391.907 462.249 391.54 461.574C391.174 460.899 390.675 460.386 390.044 460.034C389.428 459.667 388.746 459.484 387.998 459.484C387.25 459.484 386.568 459.66 385.952 460.012C385.336 460.364 384.845 460.877 384.478 461.552C384.112 462.227 383.928 463.019 383.928 463.928C383.928 464.852 384.112 465.659 384.478 466.348C384.845 467.023 385.336 467.543 385.952 467.91C386.568 468.262 387.25 468.438 387.998 468.438C388.746 468.438 389.428 468.262 390.044 467.91C390.675 467.543 391.174 467.023 391.54 466.348C391.907 465.659 392.09 464.859 392.09 463.95ZM399.411 455.986C399.03 455.986 398.707 455.854 398.443 455.59C398.179 455.326 398.047 455.003 398.047 454.622C398.047 454.241 398.179 453.918 398.443 453.654C398.707 453.39 399.03 453.258 399.411 453.258C399.778 453.258 400.086 453.39 400.335 453.654C400.599 453.918 400.731 454.241 400.731 454.622C400.731 455.003 400.599 455.326 400.335 455.59C400.086 455.854 399.778 455.986 399.411 455.986ZM400.379 457.944V470H398.377V457.944H400.379ZM415.671 463.51C415.671 463.891 415.649 464.295 415.605 464.72H405.969C406.043 465.908 406.446 466.839 407.179 467.514C407.927 468.174 408.829 468.504 409.885 468.504C410.751 468.504 411.469 468.306 412.041 467.91C412.628 467.499 413.039 466.957 413.273 466.282H415.429C415.107 467.441 414.461 468.387 413.493 469.12C412.525 469.839 411.323 470.198 409.885 470.198C408.741 470.198 407.715 469.941 406.805 469.428C405.911 468.915 405.207 468.189 404.693 467.25C404.18 466.297 403.923 465.197 403.923 463.95C403.923 462.703 404.173 461.611 404.671 460.672C405.17 459.733 405.867 459.015 406.761 458.516C407.671 458.003 408.712 457.746 409.885 457.746C411.029 457.746 412.041 457.995 412.921 458.494C413.801 458.993 414.476 459.682 414.945 460.562C415.429 461.427 415.671 462.41 415.671 463.51ZM413.603 463.092C413.603 462.329 413.435 461.677 413.097 461.134C412.76 460.577 412.298 460.159 411.711 459.88C411.139 459.587 410.501 459.44 409.797 459.44C408.785 459.44 407.92 459.763 407.201 460.408C406.497 461.053 406.094 461.948 405.991 463.092H413.603ZM423.462 470.198C422.538 470.198 421.709 470.044 420.976 469.736C420.243 469.413 419.663 468.973 419.238 468.416C418.813 467.844 418.578 467.191 418.534 466.458H420.602C420.661 467.059 420.939 467.551 421.438 467.932C421.951 468.313 422.619 468.504 423.44 468.504C424.203 468.504 424.804 468.335 425.244 467.998C425.684 467.661 425.904 467.235 425.904 466.722C425.904 466.194 425.669 465.805 425.2 465.556C424.731 465.292 424.005 465.035 423.022 464.786C422.127 464.551 421.394 464.317 420.822 464.082C420.265 463.833 419.781 463.473 419.37 463.004C418.974 462.52 418.776 461.889 418.776 461.112C418.776 460.496 418.959 459.931 419.326 459.418C419.693 458.905 420.213 458.501 420.888 458.208C421.563 457.9 422.333 457.746 423.198 457.746C424.533 457.746 425.611 458.083 426.432 458.758C427.253 459.433 427.693 460.357 427.752 461.53H425.75C425.706 460.899 425.449 460.393 424.98 460.012C424.525 459.631 423.909 459.44 423.132 459.44C422.413 459.44 421.841 459.594 421.416 459.902C420.991 460.21 420.778 460.613 420.778 461.112C420.778 461.508 420.903 461.838 421.152 462.102C421.416 462.351 421.739 462.557 422.12 462.718C422.516 462.865 423.059 463.033 423.748 463.224C424.613 463.459 425.317 463.693 425.86 463.928C426.403 464.148 426.865 464.485 427.246 464.94C427.642 465.395 427.847 465.989 427.862 466.722C427.862 467.382 427.679 467.976 427.312 468.504C426.945 469.032 426.425 469.45 425.75 469.758C425.09 470.051 424.327 470.198 423.462 470.198ZM440.315 454.666V470H438.313V454.666H440.315ZM450.482 457.724C451.948 457.724 453.136 458.171 454.046 459.066C454.955 459.946 455.41 461.222 455.41 462.894V470H453.43V463.18C453.43 461.977 453.129 461.061 452.528 460.43C451.926 459.785 451.105 459.462 450.064 459.462C449.008 459.462 448.164 459.792 447.534 460.452C446.918 461.112 446.61 462.073 446.61 463.334V470H444.608V457.944H446.61V459.66C447.006 459.044 447.541 458.567 448.216 458.23C448.905 457.893 449.66 457.724 450.482 457.724ZM458.812 463.95C458.812 462.703 459.061 461.618 459.56 460.694C460.058 459.755 460.748 459.029 461.628 458.516C462.522 458.003 463.542 457.746 464.686 457.746C466.167 457.746 467.384 458.105 468.338 458.824C469.306 459.543 469.944 460.54 470.252 461.816H468.096C467.89 461.083 467.487 460.503 466.886 460.078C466.299 459.653 465.566 459.44 464.686 459.44C463.542 459.44 462.618 459.836 461.914 460.628C461.21 461.405 460.858 462.513 460.858 463.95C460.858 465.402 461.21 466.524 461.914 467.316C462.618 468.108 463.542 468.504 464.686 468.504C465.566 468.504 466.299 468.299 466.886 467.888C467.472 467.477 467.876 466.891 468.096 466.128H470.252C469.929 467.36 469.284 468.35 468.316 469.098C467.348 469.831 466.138 470.198 464.686 470.198C463.542 470.198 462.522 469.941 461.628 469.428C460.748 468.915 460.058 468.189 459.56 467.25C459.061 466.311 458.812 465.211 458.812 463.95ZM474.441 470.132C474.06 470.132 473.737 470 473.473 469.736C473.209 469.472 473.077 469.149 473.077 468.768C473.077 468.387 473.209 468.064 473.473 467.8C473.737 467.536 474.06 467.404 474.441 467.404C474.808 467.404 475.116 467.536 475.365 467.8C475.629 468.064 475.761 468.387 475.761 468.768C475.761 469.149 475.629 469.472 475.365 469.736C475.116 470 474.808 470.132 474.441 470.132Z" fill="#B2B3CF"/>
<path d="M86.9856 207.182C85.7723 207.182 84.6803 206.974 83.7096 206.558C82.739 206.125 81.9763 205.518 81.4216 204.738C80.867 203.958 80.5896 203.048 80.5896 202.008H83.7616C83.831 202.788 84.1343 203.429 84.6716 203.932C85.2263 204.435 85.9976 204.686 86.9856 204.686C88.0083 204.686 88.8056 204.443 89.3776 203.958C89.9496 203.455 90.2356 202.814 90.2356 202.034C90.2356 201.427 90.0536 200.933 89.6896 200.552C89.343 200.171 88.901 199.876 88.3636 199.668C87.8436 199.46 87.1156 199.235 86.1796 198.992C85.001 198.68 84.039 198.368 83.2936 198.056C82.5656 197.727 81.9416 197.224 81.4216 196.548C80.9016 195.872 80.6416 194.971 80.6416 193.844C80.6416 192.804 80.9016 191.894 81.4216 191.114C81.9416 190.334 82.6696 189.736 83.6056 189.32C84.5416 188.904 85.625 188.696 86.8556 188.696C88.6063 188.696 90.0363 189.138 91.1456 190.022C92.2723 190.889 92.8963 192.085 93.0176 193.61H89.7416C89.6896 192.951 89.3776 192.388 88.8056 191.92C88.2336 191.452 87.4796 191.218 86.5436 191.218C85.6943 191.218 85.001 191.435 84.4636 191.868C83.9263 192.301 83.6576 192.925 83.6576 193.74C83.6576 194.295 83.8223 194.754 84.1516 195.118C84.4983 195.465 84.9316 195.742 85.4516 195.95C85.9716 196.158 86.6823 196.383 87.5836 196.626C88.7796 196.955 89.7503 197.285 90.4956 197.614C91.2583 197.943 91.8996 198.455 92.4196 199.148C92.957 199.824 93.2256 200.734 93.2256 201.878C93.2256 202.797 92.9743 203.663 92.4716 204.478C91.9863 205.293 91.267 205.951 90.3136 206.454C89.3776 206.939 88.2683 207.182 86.9856 207.182ZM110.737 192.674V207H107.773V205.31C107.305 205.899 106.69 206.367 105.927 206.714C105.182 207.043 104.384 207.208 103.535 207.208C102.408 207.208 101.394 206.974 100.493 206.506C99.609 206.038 98.907 205.345 98.387 204.426C97.8844 203.507 97.633 202.398 97.633 201.098V192.674H100.571V200.656C100.571 201.939 100.892 202.927 101.533 203.62C102.174 204.296 103.05 204.634 104.159 204.634C105.268 204.634 106.144 204.296 106.785 203.62C107.444 202.927 107.773 201.939 107.773 200.656V192.674H110.737ZM118.652 194.806C119.154 194.113 119.839 193.549 120.706 193.116C121.59 192.665 122.569 192.44 123.644 192.44C124.909 192.44 126.053 192.743 127.076 193.35C128.098 193.957 128.904 194.823 129.494 195.95C130.083 197.059 130.378 198.333 130.378 199.772C130.378 201.211 130.083 202.502 129.494 203.646C128.904 204.773 128.09 205.657 127.05 206.298C126.027 206.922 124.892 207.234 123.644 207.234C122.534 207.234 121.546 207.017 120.68 206.584C119.83 206.151 119.154 205.596 118.652 204.92V207H115.688V187.76H118.652V194.806ZM127.362 199.772C127.362 198.784 127.154 197.935 126.738 197.224C126.339 196.496 125.802 195.95 125.126 195.586C124.467 195.205 123.756 195.014 122.994 195.014C122.248 195.014 121.538 195.205 120.862 195.586C120.203 195.967 119.666 196.522 119.25 197.25C118.851 197.978 118.652 198.836 118.652 199.824C118.652 200.812 118.851 201.679 119.25 202.424C119.666 203.152 120.203 203.707 120.862 204.088C121.538 204.469 122.248 204.66 122.994 204.66C123.756 204.66 124.467 204.469 125.126 204.088C125.802 203.689 126.339 203.117 126.738 202.372C127.154 201.627 127.362 200.76 127.362 199.772ZM139.549 207.234C138.422 207.234 137.408 207.035 136.507 206.636C135.623 206.22 134.921 205.665 134.401 204.972C133.881 204.261 133.604 203.473 133.569 202.606H136.637C136.689 203.213 136.975 203.724 137.495 204.14C138.032 204.539 138.7 204.738 139.497 204.738C140.329 204.738 140.97 204.582 141.421 204.27C141.889 203.941 142.123 203.525 142.123 203.022C142.123 202.485 141.863 202.086 141.343 201.826C140.84 201.566 140.034 201.28 138.925 200.968C137.85 200.673 136.975 200.387 136.299 200.11C135.623 199.833 135.034 199.408 134.531 198.836C134.046 198.264 133.803 197.51 133.803 196.574C133.803 195.811 134.028 195.118 134.479 194.494C134.93 193.853 135.571 193.35 136.403 192.986C137.252 192.622 138.223 192.44 139.315 192.44C140.944 192.44 142.253 192.856 143.241 193.688C144.246 194.503 144.784 195.621 144.853 197.042H141.889C141.837 196.401 141.577 195.889 141.109 195.508C140.641 195.127 140.008 194.936 139.211 194.936C138.431 194.936 137.833 195.083 137.417 195.378C137.001 195.673 136.793 196.063 136.793 196.548C136.793 196.929 136.932 197.25 137.209 197.51C137.486 197.77 137.824 197.978 138.223 198.134C138.622 198.273 139.211 198.455 139.991 198.68C141.031 198.957 141.88 199.243 142.539 199.538C143.215 199.815 143.796 200.231 144.281 200.786C144.766 201.341 145.018 202.077 145.035 202.996C145.035 203.811 144.81 204.539 144.359 205.18C143.908 205.821 143.267 206.324 142.435 206.688C141.62 207.052 140.658 207.234 139.549 207.234ZM148.29 199.824C148.29 198.351 148.584 197.059 149.174 195.95C149.78 194.823 150.612 193.957 151.67 193.35C152.727 192.743 153.94 192.44 155.31 192.44C157.043 192.44 158.473 192.856 159.6 193.688C160.744 194.503 161.515 195.673 161.914 197.198H158.716C158.456 196.487 158.04 195.933 157.468 195.534C156.896 195.135 156.176 194.936 155.31 194.936C154.096 194.936 153.126 195.369 152.398 196.236C151.687 197.085 151.332 198.281 151.332 199.824C151.332 201.367 151.687 202.571 152.398 203.438C153.126 204.305 154.096 204.738 155.31 204.738C157.026 204.738 158.161 203.984 158.716 202.476H161.914C161.498 203.932 160.718 205.093 159.574 205.96C158.43 206.809 157.008 207.234 155.31 207.234C153.94 207.234 152.727 206.931 151.67 206.324C150.612 205.7 149.78 204.833 149.174 203.724C148.584 202.597 148.29 201.297 148.29 199.824ZM168.871 194.754C169.305 194.026 169.877 193.463 170.587 193.064C171.315 192.648 172.173 192.44 173.161 192.44V195.508H172.407C171.246 195.508 170.362 195.803 169.755 196.392C169.166 196.981 168.871 198.004 168.871 199.46V207H165.907V192.674H168.871V194.754ZM178.434 190.776C177.897 190.776 177.446 190.594 177.082 190.23C176.718 189.866 176.536 189.415 176.536 188.878C176.536 188.341 176.718 187.89 177.082 187.526C177.446 187.162 177.897 186.98 178.434 186.98C178.954 186.98 179.396 187.162 179.76 187.526C180.124 187.89 180.306 188.341 180.306 188.878C180.306 189.415 180.124 189.866 179.76 190.23C179.396 190.594 178.954 190.776 178.434 190.776ZM179.89 192.674V207H176.926V192.674H179.89ZM187.785 194.806C188.288 194.113 188.973 193.549 189.839 193.116C190.723 192.665 191.703 192.44 192.777 192.44C194.043 192.44 195.187 192.743 196.209 193.35C197.232 193.957 198.038 194.823 198.627 195.95C199.217 197.059 199.511 198.333 199.511 199.772C199.511 201.211 199.217 202.502 198.627 203.646C198.038 204.773 197.223 205.657 196.183 206.298C195.161 206.922 194.025 207.234 192.777 207.234C191.668 207.234 190.68 207.017 189.813 206.584C188.964 206.151 188.288 205.596 187.785 204.92V207H184.821V187.76H187.785V194.806ZM196.495 199.772C196.495 198.784 196.287 197.935 195.871 197.224C195.473 196.496 194.935 195.95 194.259 195.586C193.601 195.205 192.89 195.014 192.127 195.014C191.382 195.014 190.671 195.205 189.995 195.586C189.337 195.967 188.799 196.522 188.383 197.25C187.985 197.978 187.785 198.836 187.785 199.824C187.785 200.812 187.985 201.679 188.383 202.424C188.799 203.152 189.337 203.707 189.995 204.088C190.671 204.469 191.382 204.66 192.127 204.66C192.89 204.66 193.601 204.469 194.259 204.088C194.935 203.689 195.473 203.117 195.871 202.372C196.287 201.627 196.495 200.76 196.495 199.772ZM216.612 199.486C216.612 200.023 216.578 200.509 216.508 200.942H205.562C205.649 202.086 206.074 203.005 206.836 203.698C207.599 204.391 208.535 204.738 209.644 204.738C211.239 204.738 212.366 204.071 213.024 202.736H216.222C215.789 204.053 215 205.137 213.856 205.986C212.73 206.818 211.326 207.234 209.644 207.234C208.275 207.234 207.044 206.931 205.952 206.324C204.878 205.7 204.028 204.833 203.404 203.724C202.798 202.597 202.494 201.297 202.494 199.824C202.494 198.351 202.789 197.059 203.378 195.95C203.985 194.823 204.826 193.957 205.9 193.35C206.992 192.743 208.24 192.44 209.644 192.44C210.996 192.44 212.201 192.735 213.258 193.324C214.316 193.913 215.139 194.745 215.728 195.82C216.318 196.877 216.612 198.099 216.612 199.486ZM213.518 198.55C213.501 197.458 213.111 196.583 212.348 195.924C211.586 195.265 210.641 194.936 209.514 194.936C208.492 194.936 207.616 195.265 206.888 195.924C206.16 196.565 205.727 197.441 205.588 198.55H213.518ZM231.821 195.092V203.022C231.821 203.559 231.943 203.949 232.185 204.192C232.445 204.417 232.879 204.53 233.485 204.53H235.305V207H232.965C231.631 207 230.608 206.688 229.897 206.064C229.187 205.44 228.831 204.426 228.831 203.022V195.092H227.141V192.674H228.831V189.112H231.821V192.674H235.305V195.092H231.821ZM245.291 207.234C243.939 207.234 242.717 206.931 241.625 206.324C240.533 205.7 239.675 204.833 239.051 203.724C238.427 202.597 238.115 201.297 238.115 199.824C238.115 198.368 238.436 197.077 239.077 195.95C239.718 194.823 240.594 193.957 241.703 193.35C242.812 192.743 244.052 192.44 245.421 192.44C246.79 192.44 248.03 192.743 249.139 193.35C250.248 193.957 251.124 194.823 251.765 195.95C252.406 197.077 252.727 198.368 252.727 199.824C252.727 201.28 252.398 202.571 251.739 203.698C251.08 204.825 250.179 205.7 249.035 206.324C247.908 206.931 246.66 207.234 245.291 207.234ZM245.291 204.66C246.054 204.66 246.764 204.478 247.423 204.114C248.099 203.75 248.645 203.204 249.061 202.476C249.477 201.748 249.685 200.864 249.685 199.824C249.685 198.784 249.486 197.909 249.087 197.198C248.688 196.47 248.16 195.924 247.501 195.56C246.842 195.196 246.132 195.014 245.369 195.014C244.606 195.014 243.896 195.196 243.237 195.56C242.596 195.924 242.084 196.47 241.703 197.198C241.322 197.909 241.131 198.784 241.131 199.824C241.131 201.367 241.521 202.563 242.301 203.412C243.098 204.244 244.095 204.66 245.291 204.66ZM270.263 192.44C271.372 192.44 272.352 192.665 273.201 193.116C274.068 193.549 274.744 194.095 275.229 194.754V192.674H278.219V207.234C278.219 208.551 277.942 209.721 277.387 210.744C276.832 211.784 276.026 212.599 274.969 213.188C273.929 213.777 272.681 214.072 271.225 214.072C269.284 214.072 267.672 213.613 266.389 212.694C265.106 211.793 264.378 210.562 264.205 209.002H267.143C267.368 209.747 267.845 210.345 268.573 210.796C269.318 211.264 270.202 211.498 271.225 211.498C272.421 211.498 273.383 211.134 274.111 210.406C274.856 209.678 275.229 208.621 275.229 207.234V204.842C274.726 205.518 274.042 206.09 273.175 206.558C272.326 207.009 271.355 207.234 270.263 207.234C269.015 207.234 267.871 206.922 266.831 206.298C265.808 205.657 264.994 204.773 264.387 203.646C263.798 202.502 263.503 201.211 263.503 199.772C263.503 198.333 263.798 197.059 264.387 195.95C264.994 194.841 265.808 193.983 266.831 193.376C267.871 192.752 269.015 192.44 270.263 192.44ZM275.229 199.824C275.229 198.836 275.021 197.978 274.605 197.25C274.206 196.522 273.678 195.967 273.019 195.586C272.36 195.205 271.65 195.014 270.887 195.014C270.124 195.014 269.414 195.205 268.755 195.586C268.096 195.95 267.559 196.496 267.143 197.224C266.744 197.935 266.545 198.784 266.545 199.772C266.545 200.76 266.744 201.627 267.143 202.372C267.559 203.117 268.096 203.689 268.755 204.088C269.431 204.469 270.142 204.66 270.887 204.66C271.65 204.66 272.36 204.469 273.019 204.088C273.678 203.707 274.206 203.152 274.605 202.424C275.021 201.679 275.229 200.812 275.229 199.824ZM296.282 199.486C296.282 200.023 296.248 200.509 296.178 200.942H285.232C285.319 202.086 285.744 203.005 286.506 203.698C287.269 204.391 288.205 204.738 289.314 204.738C290.909 204.738 292.036 204.071 292.694 202.736H295.892C295.459 204.053 294.67 205.137 293.526 205.986C292.4 206.818 290.996 207.234 289.314 207.234C287.945 207.234 286.714 206.931 285.622 206.324C284.548 205.7 283.698 204.833 283.074 203.724C282.468 202.597 282.164 201.297 282.164 199.824C282.164 198.351 282.459 197.059 283.048 195.95C283.655 194.823 284.496 193.957 285.57 193.35C286.662 192.743 287.91 192.44 289.314 192.44C290.666 192.44 291.871 192.735 292.928 193.324C293.986 193.913 294.809 194.745 295.398 195.82C295.988 196.877 296.282 198.099 296.282 199.486ZM293.188 198.55C293.171 197.458 292.781 196.583 292.018 195.924C291.256 195.265 290.311 194.936 289.184 194.936C288.162 194.936 287.286 195.265 286.558 195.924C285.83 196.565 285.397 197.441 285.258 198.55H293.188ZM303.697 195.092V203.022C303.697 203.559 303.818 203.949 304.061 204.192C304.321 204.417 304.754 204.53 305.361 204.53H307.181V207H304.841C303.506 207 302.484 206.688 301.773 206.064C301.062 205.44 300.707 204.426 300.707 203.022V195.092H299.017V192.674H300.707V189.112H303.697V192.674H307.181V195.092H303.697ZM324.961 207.234C323.609 207.234 322.387 206.931 321.295 206.324C320.203 205.7 319.345 204.833 318.721 203.724C318.097 202.597 317.785 201.297 317.785 199.824C317.785 198.368 318.105 197.077 318.747 195.95C319.388 194.823 320.263 193.957 321.373 193.35C322.482 192.743 323.721 192.44 325.091 192.44C326.46 192.44 327.699 192.743 328.809 193.35C329.918 193.957 330.793 194.823 331.435 195.95C332.076 197.077 332.397 198.368 332.397 199.824C332.397 201.28 332.067 202.571 331.409 203.698C330.75 204.825 329.849 205.7 328.705 206.324C327.578 206.931 326.33 207.234 324.961 207.234ZM324.961 204.66C325.723 204.66 326.434 204.478 327.093 204.114C327.769 203.75 328.315 203.204 328.731 202.476C329.147 201.748 329.355 200.864 329.355 199.824C329.355 198.784 329.155 197.909 328.757 197.198C328.358 196.47 327.829 195.924 327.171 195.56C326.512 195.196 325.801 195.014 325.039 195.014C324.276 195.014 323.565 195.196 322.907 195.56C322.265 195.924 321.754 196.47 321.373 197.198C320.991 197.909 320.801 198.784 320.801 199.824C320.801 201.367 321.191 202.563 321.971 203.412C322.768 204.244 323.765 204.66 324.961 204.66ZM349.341 192.674V207H346.377V205.31C345.909 205.899 345.294 206.367 344.531 206.714C343.786 207.043 342.988 207.208 342.139 207.208C341.012 207.208 339.998 206.974 339.097 206.506C338.213 206.038 337.511 205.345 336.991 204.426C336.488 203.507 336.237 202.398 336.237 201.098V192.674H339.175V200.656C339.175 201.939 339.496 202.927 340.137 203.62C340.778 204.296 341.654 204.634 342.763 204.634C343.872 204.634 344.748 204.296 345.389 203.62C346.048 202.927 346.377 201.939 346.377 200.656V192.674H349.341ZM357.256 194.754C357.689 194.026 358.261 193.463 358.972 193.064C359.7 192.648 360.558 192.44 361.546 192.44V195.508H360.792C359.63 195.508 358.746 195.803 358.14 196.392C357.55 196.981 357.256 198.004 357.256 199.46V207H354.292V192.674H357.256V194.754ZM387.95 207H384.986L376.068 193.506V207H373.104V188.904H376.068L384.986 202.372V188.904H387.95V207ZM406.012 199.486C406.012 200.023 405.978 200.509 405.908 200.942H394.962C395.049 202.086 395.474 203.005 396.236 203.698C396.999 204.391 397.935 204.738 399.044 204.738C400.639 204.738 401.766 204.071 402.424 202.736H405.622C405.189 204.053 404.4 205.137 403.256 205.986C402.13 206.818 400.726 207.234 399.044 207.234C397.675 207.234 396.444 206.931 395.352 206.324C394.278 205.7 393.428 204.833 392.804 203.724C392.198 202.597 391.894 201.297 391.894 199.824C391.894 198.351 392.189 197.059 392.778 195.95C393.385 194.823 394.226 193.957 395.3 193.35C396.392 192.743 397.64 192.44 399.044 192.44C400.396 192.44 401.601 192.735 402.658 193.324C403.716 193.913 404.539 194.745 405.128 195.82C405.718 196.877 406.012 198.099 406.012 199.486ZM402.918 198.55C402.901 197.458 402.511 196.583 401.748 195.924C400.986 195.265 400.041 194.936 398.914 194.936C397.892 194.936 397.016 195.265 396.288 195.924C395.56 196.565 395.127 197.441 394.988 198.55H402.918ZM429.209 192.674L424.763 207H421.643L418.757 196.418L415.871 207H412.751L408.279 192.674H411.295L414.285 204.192L417.327 192.674H420.421L423.333 204.14L426.297 192.674H429.209ZM437.664 207.234C436.538 207.234 435.524 207.035 434.622 206.636C433.738 206.22 433.036 205.665 432.516 204.972C431.996 204.261 431.719 203.473 431.684 202.606H434.752C434.804 203.213 435.09 203.724 435.61 204.14C436.148 204.539 436.815 204.738 437.612 204.738C438.444 204.738 439.086 204.582 439.536 204.27C440.004 203.941 440.238 203.525 440.238 203.022C440.238 202.485 439.978 202.086 439.458 201.826C438.956 201.566 438.15 201.28 437.04 200.968C435.966 200.673 435.09 200.387 434.414 200.11C433.738 199.833 433.149 199.408 432.646 198.836C432.161 198.264 431.918 197.51 431.918 196.574C431.918 195.811 432.144 195.118 432.594 194.494C433.045 193.853 433.686 193.35 434.518 192.986C435.368 192.622 436.338 192.44 437.43 192.44C439.06 192.44 440.368 192.856 441.356 193.688C442.362 194.503 442.899 195.621 442.968 197.042H440.004C439.952 196.401 439.692 195.889 439.224 195.508C438.756 195.127 438.124 194.936 437.326 194.936C436.546 194.936 435.948 195.083 435.532 195.378C435.116 195.673 434.908 196.063 434.908 196.548C434.908 196.929 435.047 197.25 435.324 197.51C435.602 197.77 435.94 197.978 436.338 198.134C436.737 198.273 437.326 198.455 438.106 198.68C439.146 198.957 439.996 199.243 440.654 199.538C441.33 199.815 441.911 200.231 442.396 200.786C442.882 201.341 443.133 202.077 443.15 202.996C443.15 203.811 442.925 204.539 442.474 205.18C442.024 205.821 441.382 206.324 440.55 206.688C439.736 207.052 438.774 207.234 437.664 207.234ZM450.357 187.76V207H447.393V187.76H450.357ZM468.418 199.486C468.418 200.023 468.384 200.509 468.314 200.942H457.368C457.455 202.086 457.88 203.005 458.642 203.698C459.405 204.391 460.341 204.738 461.45 204.738C463.045 204.738 464.172 204.071 464.83 202.736H468.028C467.595 204.053 466.806 205.137 465.662 205.986C464.536 206.818 463.132 207.234 461.45 207.234C460.081 207.234 458.85 206.931 457.758 206.324C456.684 205.7 455.834 204.833 455.21 203.724C454.604 202.597 454.3 201.297 454.3 199.824C454.3 198.351 454.595 197.059 455.184 195.95C455.791 194.823 456.632 193.957 457.706 193.35C458.798 192.743 460.046 192.44 461.45 192.44C462.802 192.44 464.007 192.735 465.064 193.324C466.122 193.913 466.945 194.745 467.534 195.82C468.124 196.877 468.418 198.099 468.418 199.486ZM465.324 198.55C465.307 197.458 464.917 196.583 464.154 195.924C463.392 195.265 462.447 194.936 461.32 194.936C460.298 194.936 459.422 195.265 458.694 195.924C457.966 196.565 457.533 197.441 457.394 198.55H465.324ZM475.833 195.092V203.022C475.833 203.559 475.955 203.949 476.197 204.192C476.457 204.417 476.891 204.53 477.497 204.53H479.317V207H476.977C475.643 207 474.62 206.688 473.909 206.064C473.199 205.44 472.843 204.426 472.843 203.022V195.092H471.153V192.674H472.843V189.112H475.833V192.674H479.317V195.092H475.833ZM486.547 195.092V203.022C486.547 203.559 486.668 203.949 486.911 204.192C487.171 204.417 487.604 204.53 488.211 204.53H490.031V207H487.691C486.356 207 485.334 206.688 484.623 206.064C483.912 205.44 483.557 204.426 483.557 203.022V195.092H481.867V192.674H483.557V189.112H486.547V192.674H490.031V195.092H486.547ZM506.933 199.486C506.933 200.023 506.898 200.509 506.829 200.942H495.883C495.97 202.086 496.394 203.005 497.157 203.698C497.92 204.391 498.856 204.738 499.965 204.738C501.56 204.738 502.686 204.071 503.345 202.736H506.543C506.11 204.053 505.321 205.137 504.177 205.986C503.05 206.818 501.646 207.234 499.965 207.234C498.596 207.234 497.365 206.931 496.273 206.324C495.198 205.7 494.349 204.833 493.725 203.724C493.118 202.597 492.815 201.297 492.815 199.824C492.815 198.351 493.11 197.059 493.699 195.95C494.306 194.823 495.146 193.957 496.221 193.35C497.313 192.743 498.561 192.44 499.965 192.44C501.317 192.44 502.522 192.735 503.579 193.324C504.636 193.913 505.46 194.745 506.049 195.82C506.638 196.877 506.933 198.099 506.933 199.486ZM503.839 198.55C503.822 197.458 503.432 196.583 502.669 195.924C501.906 195.265 500.962 194.936 499.835 194.936C498.812 194.936 497.937 195.265 497.209 195.924C496.481 196.565 496.048 197.441 495.909 198.55H503.839ZM513.854 194.754C514.287 194.026 514.859 193.463 515.57 193.064C516.298 192.648 517.156 192.44 518.144 192.44V195.508H517.39C516.229 195.508 515.345 195.803 514.738 196.392C514.149 196.981 513.854 198.004 513.854 199.46V207H510.89V192.674H513.854V194.754Z" fill="#B2B3CF"/>
<path d="M142.964 4.94975C144.917 2.99713 148.083 2.99713 150.036 4.94975L183.05 37.9645C185.003 39.9171 185.003 43.0829 183.05 45.0355L150.036 78.0502C148.083 80.0029 144.917 80.0029 142.964 78.0503L109.95 45.0355C107.997 43.0829 107.997 39.9171 109.95 37.9645L142.964 4.94975Z" stroke="#26C1F2" stroke-width="2"/>
<path d="M137.112 52.224C135.469 52.224 133.997 51.9573 132.696 51.424C131.395 50.8907 130.349 50.1013 129.56 49.056C128.792 48.0107 128.387 46.752 128.344 45.28H134.168C134.253 46.112 134.541 46.752 135.032 47.2C135.523 47.6267 136.163 47.84 136.952 47.84C137.763 47.84 138.403 47.6587 138.872 47.296C139.341 46.912 139.576 46.3893 139.576 45.728C139.576 45.1733 139.384 44.7147 139 44.352C138.637 43.9893 138.179 43.6907 137.624 43.456C137.091 43.2213 136.323 42.9547 135.32 42.656C133.869 42.208 132.685 41.76 131.768 41.312C130.851 40.864 130.061 40.2027 129.4 39.328C128.739 38.4533 128.408 37.312 128.408 35.904C128.408 33.8133 129.165 32.1813 130.68 31.008C132.195 29.8133 134.168 29.216 136.6 29.216C139.075 29.216 141.069 29.8133 142.584 31.008C144.099 32.1813 144.909 33.824 145.016 35.936H139.096C139.053 35.2107 138.787 34.6453 138.296 34.24C137.805 33.8133 137.176 33.6 136.408 33.6C135.747 33.6 135.213 33.7813 134.808 34.144C134.403 34.4853 134.2 34.9867 134.2 35.648C134.2 36.3733 134.541 36.9387 135.224 37.344C135.907 37.7493 136.973 38.1867 138.424 38.656C139.875 39.1467 141.048 39.616 141.944 40.064C142.861 40.512 143.651 41.1627 144.312 42.016C144.973 42.8693 145.304 43.968 145.304 45.312C145.304 46.592 144.973 47.7547 144.312 48.8C143.672 49.8453 142.733 50.6773 141.496 51.296C140.259 51.9147 138.797 52.224 137.112 52.224ZM160.864 52L155.424 44.512V52H149.952V28.32H155.424V41.408L160.832 34.144H167.584L160.16 43.104L167.648 52H160.864ZM173.765 32.288C172.805 32.288 172.015 32.0107 171.397 31.456C170.799 30.88 170.501 30.176 170.501 29.344C170.501 28.4907 170.799 27.7867 171.397 27.232C172.015 26.656 172.805 26.368 173.765 26.368C174.703 26.368 175.471 26.656 176.069 27.232C176.687 27.7867 176.997 28.4907 176.997 29.344C176.997 30.176 176.687 30.88 176.069 31.456C175.471 32.0107 174.703 32.288 173.765 32.288ZM176.485 34.144V52H171.013V34.144H176.485ZM187.202 28.32V52H181.73V28.32H187.202ZM197.92 28.32V52H192.448V28.32H197.92ZM205.917 32.288C204.957 32.288 204.168 32.0107 203.549 31.456C202.952 30.88 202.653 30.176 202.653 29.344C202.653 28.4907 202.952 27.7867 203.549 27.232C204.168 26.656 204.957 26.368 205.917 26.368C206.856 26.368 207.624 26.656 208.221 27.232C208.84 27.7867 209.149 28.4907 209.149 29.344C209.149 30.176 208.84 30.88 208.221 31.456C207.624 32.0107 206.856 32.288 205.917 32.288ZM208.637 34.144V52H203.165V34.144H208.637ZM224.763 33.952C226.853 33.952 228.517 34.6347 229.755 36C231.013 37.344 231.643 39.2 231.643 41.568V52H226.203V42.304C226.203 41.1093 225.893 40.1813 225.275 39.52C224.656 38.8587 223.824 38.528 222.779 38.528C221.733 38.528 220.901 38.8587 220.283 39.52C219.664 40.1813 219.355 41.1093 219.355 42.304V52H213.883V34.144H219.355V36.512C219.909 35.7227 220.656 35.104 221.595 34.656C222.533 34.1867 223.589 33.952 224.763 33.952ZM253.557 42.784C253.557 43.296 253.525 43.8293 253.461 44.384H241.077C241.163 45.4933 241.515 46.3467 242.133 46.944C242.773 47.52 243.552 47.808 244.469 47.808C245.835 47.808 246.784 47.232 247.317 46.08H253.141C252.843 47.2533 252.299 48.3093 251.509 49.248C250.741 50.1867 249.771 50.9227 248.597 51.456C247.424 51.9893 246.112 52.256 244.661 52.256C242.912 52.256 241.355 51.8827 239.989 51.136C238.624 50.3893 237.557 49.3227 236.789 47.936C236.021 46.5493 235.637 44.928 235.637 43.072C235.637 41.216 236.011 39.5947 236.757 38.208C237.525 36.8213 238.592 35.7547 239.957 35.008C241.323 34.2613 242.891 33.888 244.661 33.888C246.389 33.888 247.925 34.2507 249.269 34.976C250.613 35.7013 251.659 36.736 252.405 38.08C253.173 39.424 253.557 40.992 253.557 42.784ZM247.957 41.344C247.957 40.4053 247.637 39.6587 246.997 39.104C246.357 38.5493 245.557 38.272 244.597 38.272C243.68 38.272 242.901 38.5387 242.261 39.072C241.643 39.6053 241.259 40.3627 241.109 41.344H247.957Z" fill="white"/>
<line x1="296.5" y1="-2.18557e-08" x2="296.5" y2="83" stroke="#626381"/>
<path d="M352.312 17.644L346.68 33H342.94L337.308 17.644H340.608L344.832 29.854L349.034 17.644H352.312ZM356.601 19.36C356.058 19.36 355.603 19.1913 355.237 18.854C354.885 18.502 354.709 18.0693 354.709 17.556C354.709 17.0427 354.885 16.6173 355.237 16.28C355.603 15.928 356.058 15.752 356.601 15.752C357.143 15.752 357.591 15.928 357.943 16.28C358.309 16.6173 358.493 17.0427 358.493 17.556C358.493 18.0693 358.309 18.502 357.943 18.854C357.591 19.1913 357.143 19.36 356.601 19.36ZM358.119 20.812V33H355.039V20.812H358.119ZM365.122 22.704C365.518 22.0587 366.031 21.5527 366.662 21.186C367.307 20.8193 368.04 20.636 368.862 20.636V23.87H368.048C367.08 23.87 366.346 24.0973 365.848 24.552C365.364 25.0067 365.122 25.7987 365.122 26.928V33H362.042V20.812H365.122V22.704ZM375.402 23.342V29.238C375.402 29.6487 375.498 29.9493 375.688 30.14C375.894 30.316 376.231 30.404 376.7 30.404H378.13V33H376.194C373.598 33 372.3 31.7387 372.3 29.216V23.342H370.848V20.812H372.3V17.798H375.402V20.812H378.13V23.342H375.402ZM392.732 20.812V33H389.63V31.46C389.234 31.988 388.713 32.406 388.068 32.714C387.437 33.0073 386.748 33.154 386 33.154C385.046 33.154 384.203 32.956 383.47 32.56C382.736 32.1493 382.157 31.5553 381.732 30.778C381.321 29.986 381.116 29.0473 381.116 27.962V20.812H384.196V27.522C384.196 28.49 384.438 29.238 384.922 29.766C385.406 30.2793 386.066 30.536 386.902 30.536C387.752 30.536 388.42 30.2793 388.904 29.766C389.388 29.238 389.63 28.49 389.63 27.522V20.812H392.732ZM395.858 26.862C395.858 25.63 396.1 24.5373 396.584 23.584C397.083 22.6307 397.75 21.8973 398.586 21.384C399.437 20.8707 400.383 20.614 401.424 20.614C402.334 20.614 403.126 20.7973 403.8 21.164C404.49 21.5307 405.04 21.9927 405.45 22.55V20.812H408.552V33H405.45V31.218C405.054 31.79 404.504 32.2667 403.8 32.648C403.111 33.0147 402.312 33.198 401.402 33.198C400.376 33.198 399.437 32.934 398.586 32.406C397.75 31.878 397.083 31.1373 396.584 30.184C396.1 29.216 395.858 28.1087 395.858 26.862ZM405.45 26.906C405.45 26.158 405.304 25.52 405.01 24.992C404.717 24.4493 404.321 24.0387 403.822 23.76C403.324 23.4667 402.788 23.32 402.216 23.32C401.644 23.32 401.116 23.4593 400.632 23.738C400.148 24.0167 399.752 24.4273 399.444 24.97C399.151 25.498 399.004 26.1287 399.004 26.862C399.004 27.5953 399.151 28.2407 399.444 28.798C399.752 29.3407 400.148 29.7587 400.632 30.052C401.131 30.3453 401.659 30.492 402.216 30.492C402.788 30.492 403.324 30.3527 403.822 30.074C404.321 29.7807 404.717 29.37 405.01 28.842C405.304 28.2993 405.45 27.654 405.45 26.906ZM415.521 16.72V33H412.441V16.72H415.521ZM424.818 25.3C424.818 23.7893 425.155 22.44 425.83 21.252C426.519 20.0493 427.45 19.118 428.624 18.458C429.812 17.7833 431.139 17.446 432.606 17.446C434.322 17.446 435.825 17.886 437.116 18.766C438.406 19.646 439.308 20.8633 439.822 22.418H436.28C435.928 21.6847 435.429 21.1347 434.784 20.768C434.153 20.4013 433.42 20.218 432.584 20.218C431.689 20.218 430.89 20.4307 430.186 20.856C429.496 21.2667 428.954 21.8533 428.558 22.616C428.176 23.3787 427.986 24.2733 427.986 25.3C427.986 26.312 428.176 27.2067 428.558 27.984C428.954 28.7467 429.496 29.3407 430.186 29.766C430.89 30.1767 431.689 30.382 432.584 30.382C433.42 30.382 434.153 30.1987 434.784 29.832C435.429 29.4507 435.928 28.8933 436.28 28.16H439.822C439.308 29.7293 438.406 30.954 437.116 31.834C435.84 32.6993 434.336 33.132 432.606 33.132C431.139 33.132 429.812 32.802 428.624 32.142C427.45 31.4673 426.519 30.536 425.83 29.348C425.155 28.16 424.818 26.8107 424.818 25.3ZM446.413 16.72V33H443.333V16.72H446.413ZM449.544 26.862C449.544 25.63 449.786 24.5373 450.27 23.584C450.768 22.6307 451.436 21.8973 452.272 21.384C453.122 20.8707 454.068 20.614 455.11 20.614C456.019 20.614 456.811 20.7973 457.486 21.164C458.175 21.5307 458.725 21.9927 459.136 22.55V20.812H462.238V33H459.136V31.218C458.74 31.79 458.19 32.2667 457.486 32.648C456.796 33.0147 455.997 33.198 455.088 33.198C454.061 33.198 453.122 32.934 452.272 32.406C451.436 31.878 450.768 31.1373 450.27 30.184C449.786 29.216 449.544 28.1087 449.544 26.862ZM459.136 26.906C459.136 26.158 458.989 25.52 458.696 24.992C458.402 24.4493 458.006 24.0387 457.508 23.76C457.009 23.4667 456.474 23.32 455.902 23.32C455.33 23.32 454.802 23.4593 454.318 23.738C453.834 24.0167 453.438 24.4273 453.13 24.97C452.836 25.498 452.69 26.1287 452.69 26.862C452.69 27.5953 452.836 28.2407 453.13 28.798C453.438 29.3407 453.834 29.7587 454.318 30.052C454.816 30.3453 455.344 30.492 455.902 30.492C456.474 30.492 457.009 30.3527 457.508 30.074C458.006 29.7807 458.402 29.37 458.696 28.842C458.989 28.2993 459.136 27.654 459.136 26.906ZM470.79 33.198C469.792 33.198 468.898 33.022 468.106 32.67C467.314 32.3033 466.683 31.812 466.214 31.196C465.759 30.58 465.51 29.898 465.466 29.15H468.568C468.626 29.6193 468.854 30.008 469.25 30.316C469.66 30.624 470.166 30.778 470.768 30.778C471.354 30.778 471.809 30.6607 472.132 30.426C472.469 30.1913 472.638 29.8907 472.638 29.524C472.638 29.128 472.432 28.8347 472.022 28.644C471.626 28.4387 470.988 28.2187 470.108 27.984C469.198 27.764 468.45 27.5367 467.864 27.302C467.292 27.0673 466.793 26.708 466.368 26.224C465.957 25.74 465.752 25.0873 465.752 24.266C465.752 23.5913 465.942 22.9753 466.324 22.418C466.72 21.8607 467.277 21.4207 467.996 21.098C468.729 20.7753 469.587 20.614 470.57 20.614C472.022 20.614 473.18 20.9807 474.046 21.714C474.911 22.4327 475.388 23.408 475.476 24.64H472.528C472.484 24.156 472.278 23.7747 471.912 23.496C471.56 23.2027 471.083 23.056 470.482 23.056C469.924 23.056 469.492 23.1587 469.184 23.364C468.89 23.5693 468.744 23.8553 468.744 24.222C468.744 24.6327 468.949 24.948 469.36 25.168C469.77 25.3733 470.408 25.586 471.274 25.806C472.154 26.026 472.88 26.2533 473.452 26.488C474.024 26.7227 474.515 27.0893 474.926 27.588C475.351 28.072 475.571 28.7173 475.586 29.524C475.586 30.228 475.388 30.8587 474.992 31.416C474.61 31.9733 474.053 32.4133 473.32 32.736C472.601 33.044 471.758 33.198 470.79 33.198ZM483.658 33.198C482.661 33.198 481.766 33.022 480.974 32.67C480.182 32.3033 479.551 31.812 479.082 31.196C478.627 30.58 478.378 29.898 478.334 29.15H481.436C481.495 29.6193 481.722 30.008 482.118 30.316C482.529 30.624 483.035 30.778 483.636 30.778C484.223 30.778 484.677 30.6607 485 30.426C485.337 30.1913 485.506 29.8907 485.506 29.524C485.506 29.128 485.301 28.8347 484.89 28.644C484.494 28.4387 483.856 28.2187 482.976 27.984C482.067 27.764 481.319 27.5367 480.732 27.302C480.16 27.0673 479.661 26.708 479.236 26.224C478.825 25.74 478.62 25.0873 478.62 24.266C478.62 23.5913 478.811 22.9753 479.192 22.418C479.588 21.8607 480.145 21.4207 480.864 21.098C481.597 20.7753 482.455 20.614 483.438 20.614C484.89 20.614 486.049 20.9807 486.914 21.714C487.779 22.4327 488.256 23.408 488.344 24.64H485.396C485.352 24.156 485.147 23.7747 484.78 23.496C484.428 23.2027 483.951 23.056 483.35 23.056C482.793 23.056 482.36 23.1587 482.052 23.364C481.759 23.5693 481.612 23.8553 481.612 24.222C481.612 24.6327 481.817 24.948 482.228 25.168C482.639 25.3733 483.277 25.586 484.142 25.806C485.022 26.026 485.748 26.2533 486.32 26.488C486.892 26.7227 487.383 27.0893 487.794 27.588C488.219 28.072 488.439 28.7173 488.454 29.524C488.454 30.228 488.256 30.8587 487.86 31.416C487.479 31.9733 486.921 32.4133 486.188 32.736C485.469 33.044 484.626 33.198 483.658 33.198ZM344.106 56.342H341.972V66H338.848V56.342H337.462V53.812H338.848V53.196C338.848 51.7 339.273 50.6 340.124 49.896C340.975 49.192 342.258 48.862 343.974 48.906V51.502C343.226 51.4873 342.705 51.612 342.412 51.876C342.119 52.14 341.972 52.6167 341.972 53.306V53.812H344.106V56.342ZM352.394 66.198C351.221 66.198 350.165 65.9413 349.226 65.428C348.287 64.9 347.547 64.1593 347.004 63.206C346.476 62.2527 346.212 61.1527 346.212 59.906C346.212 58.6593 346.483 57.5593 347.026 56.606C347.583 55.6527 348.339 54.9193 349.292 54.406C350.245 53.878 351.309 53.614 352.482 53.614C353.655 53.614 354.719 53.878 355.672 54.406C356.625 54.9193 357.373 55.6527 357.916 56.606C358.473 57.5593 358.752 58.6593 358.752 59.906C358.752 61.1527 358.466 62.2527 357.894 63.206C357.337 64.1593 356.574 64.9 355.606 65.428C354.653 65.9413 353.582 66.198 352.394 66.198ZM352.394 63.514C352.951 63.514 353.472 63.382 353.956 63.118C354.455 62.8393 354.851 62.4287 355.144 61.886C355.437 61.3433 355.584 60.6833 355.584 59.906C355.584 58.7473 355.276 57.86 354.66 57.244C354.059 56.6133 353.318 56.298 352.438 56.298C351.558 56.298 350.817 56.6133 350.216 57.244C349.629 57.86 349.336 58.7473 349.336 59.906C349.336 61.0647 349.622 61.9593 350.194 62.59C350.781 63.206 351.514 63.514 352.394 63.514ZM364.971 55.704C365.367 55.0587 365.881 54.5527 366.511 54.186C367.157 53.8193 367.89 53.636 368.711 53.636V56.87H367.897C366.929 56.87 366.196 57.0973 365.697 57.552C365.213 58.0067 364.971 58.7987 364.971 59.928V66H361.891V53.812H364.971V55.704ZM380.934 63.404H387.842V66H377.37V63.624L384.234 53.24H377.37V50.644H387.842V53.02L380.934 63.404ZM396.756 66.198C395.582 66.198 394.526 65.9413 393.588 65.428C392.649 64.9 391.908 64.1593 391.366 63.206C390.838 62.2527 390.574 61.1527 390.574 59.906C390.574 58.6593 390.845 57.5593 391.388 56.606C391.945 55.6527 392.7 54.9193 393.654 54.406C394.607 53.878 395.67 53.614 396.844 53.614C398.017 53.614 399.08 53.878 400.034 54.406C400.987 54.9193 401.735 55.6527 402.278 56.606C402.835 57.5593 403.114 58.6593 403.114 59.906C403.114 61.1527 402.828 62.2527 402.256 63.206C401.698 64.1593 400.936 64.9 399.968 65.428C399.014 65.9413 397.944 66.198 396.756 66.198ZM396.756 63.514C397.313 63.514 397.834 63.382 398.318 63.118C398.816 62.8393 399.212 62.4287 399.506 61.886C399.799 61.3433 399.946 60.6833 399.946 59.906C399.946 58.7473 399.638 57.86 399.022 57.244C398.42 56.6133 397.68 56.298 396.8 56.298C395.92 56.298 395.179 56.6133 394.578 57.244C393.991 57.86 393.698 58.7473 393.698 59.906C393.698 61.0647 393.984 61.9593 394.556 62.59C395.142 63.206 395.876 63.514 396.756 63.514ZM411.665 66.198C410.492 66.198 409.436 65.9413 408.497 65.428C407.558 64.9 406.818 64.1593 406.275 63.206C405.747 62.2527 405.483 61.1527 405.483 59.906C405.483 58.6593 405.754 57.5593 406.297 56.606C406.854 55.6527 407.61 54.9193 408.563 54.406C409.516 53.878 410.58 53.614 411.753 53.614C412.926 53.614 413.99 53.878 414.943 54.406C415.896 54.9193 416.644 55.6527 417.187 56.606C417.744 57.5593 418.023 58.6593 418.023 59.906C418.023 61.1527 417.737 62.2527 417.165 63.206C416.608 64.1593 415.845 64.9 414.877 65.428C413.924 65.9413 412.853 66.198 411.665 66.198ZM411.665 63.514C412.222 63.514 412.743 63.382 413.227 63.118C413.726 62.8393 414.122 62.4287 414.415 61.886C414.708 61.3433 414.855 60.6833 414.855 59.906C414.855 58.7473 414.547 57.86 413.931 57.244C413.33 56.6133 412.589 56.298 411.709 56.298C410.829 56.298 410.088 56.6133 409.487 57.244C408.9 57.86 408.607 58.7473 408.607 59.906C408.607 61.0647 408.893 61.9593 409.465 62.59C410.052 63.206 410.785 63.514 411.665 63.514ZM436.298 53.636C437.794 53.636 438.997 54.098 439.906 55.022C440.83 55.9313 441.292 57.2073 441.292 58.85V66H438.212V59.268C438.212 58.3147 437.97 57.5887 437.486 57.09C437.002 56.5767 436.342 56.32 435.506 56.32C434.67 56.32 434.003 56.5767 433.504 57.09C433.02 57.5887 432.778 58.3147 432.778 59.268V66H429.698V59.268C429.698 58.3147 429.456 57.5887 428.972 57.09C428.488 56.5767 427.828 56.32 426.992 56.32C426.142 56.32 425.467 56.5767 424.968 57.09C424.484 57.5887 424.242 58.3147 424.242 59.268V66H421.162V53.812H424.242V55.286C424.638 54.7727 425.144 54.3693 425.76 54.076C426.391 53.7827 427.08 53.636 427.828 53.636C428.782 53.636 429.632 53.8413 430.38 54.252C431.128 54.648 431.708 55.22 432.118 55.968C432.514 55.264 433.086 54.6993 433.834 54.274C434.597 53.8487 435.418 53.636 436.298 53.636Z" fill="white"/>
<line x1="130.5" y1="401" x2="130.5" y2="418" stroke="#626381"/>
<line x1="331.5" y1="401" x2="331.5" y2="418" stroke="#626381"/>
<path d="M18.2787 409.322C18.2787 407.826 18.616 406.484 19.2907 405.296C19.9653 404.093 20.882 403.155 22.0407 402.48C23.214 401.805 24.512 401.468 25.9347 401.468C27.6067 401.468 29.066 401.871 30.3127 402.678C31.5593 403.485 32.4687 404.629 33.0407 406.11H30.6427C30.2173 405.186 29.6013 404.475 28.7947 403.976C28.0027 403.477 27.0493 403.228 25.9347 403.228C24.864 403.228 23.9033 403.477 23.0527 403.976C22.202 404.475 21.5347 405.186 21.0507 406.11C20.5667 407.019 20.3247 408.09 20.3247 409.322C20.3247 410.539 20.5667 411.61 21.0507 412.534C21.5347 413.443 22.202 414.147 23.0527 414.646C23.9033 415.145 24.864 415.394 25.9347 415.394C27.0493 415.394 28.0027 415.152 28.7947 414.668C29.6013 414.169 30.2173 413.458 30.6427 412.534H33.0407C32.4687 414.001 31.5593 415.137 30.3127 415.944C29.066 416.736 27.6067 417.132 25.9347 417.132C24.512 417.132 23.214 416.802 22.0407 416.142C20.882 415.467 19.9653 414.536 19.2907 413.348C18.616 412.16 18.2787 410.818 18.2787 409.322ZM36.1528 410.928C36.1528 409.696 36.4021 408.618 36.9008 407.694C37.3995 406.755 38.0815 406.029 38.9468 405.516C39.8268 405.003 40.8021 404.746 41.8728 404.746C42.9288 404.746 43.8455 404.973 44.6228 405.428C45.4001 405.883 45.9795 406.455 46.3608 407.144V404.944H48.3848V417H46.3608V414.756C45.9648 415.46 45.3708 416.047 44.5788 416.516C43.8015 416.971 42.8921 417.198 41.8508 417.198C40.7801 417.198 39.8121 416.934 38.9468 416.406C38.0815 415.878 37.3995 415.137 36.9008 414.184C36.4021 413.231 36.1528 412.145 36.1528 410.928ZM46.3608 410.95C46.3608 410.041 46.1775 409.249 45.8108 408.574C45.4441 407.899 44.9455 407.386 44.3148 407.034C43.6988 406.667 43.0168 406.484 42.2688 406.484C41.5208 406.484 40.8388 406.66 40.2228 407.012C39.6068 407.364 39.1155 407.877 38.7488 408.552C38.3821 409.227 38.1988 410.019 38.1988 410.928C38.1988 411.852 38.3821 412.659 38.7488 413.348C39.1155 414.023 39.6068 414.543 40.2228 414.91C40.8388 415.262 41.5208 415.438 42.2688 415.438C43.0168 415.438 43.6988 415.262 44.3148 414.91C44.9455 414.543 45.4441 414.023 45.8108 413.348C46.1775 412.659 46.3608 411.859 46.3608 410.95ZM54.65 406.902C55.002 406.213 55.5007 405.677 56.146 405.296C56.806 404.915 57.6053 404.724 58.544 404.724V406.792H58.016C55.772 406.792 54.65 408.009 54.65 410.444V417H52.648V404.944H54.65V406.902ZM72.735 410.51C72.735 410.891 72.713 411.295 72.669 411.72H63.033C63.1063 412.908 63.5097 413.839 64.243 414.514C64.991 415.174 65.893 415.504 66.949 415.504C67.8143 415.504 68.533 415.306 69.105 414.91C69.6917 414.499 70.1023 413.957 70.337 413.282H72.493C72.1703 414.441 71.525 415.387 70.557 416.12C69.589 416.839 68.3863 417.198 66.949 417.198C65.805 417.198 64.7783 416.941 63.869 416.428C62.9743 415.915 62.2703 415.189 61.757 414.25C61.2437 413.297 60.987 412.197 60.987 410.95C60.987 409.703 61.2363 408.611 61.735 407.672C62.2337 406.733 62.9303 406.015 63.825 405.516C64.7343 405.003 65.7757 404.746 66.949 404.746C68.093 404.746 69.105 404.995 69.985 405.494C70.865 405.993 71.5397 406.682 72.009 407.562C72.493 408.427 72.735 409.41 72.735 410.51ZM70.667 410.092C70.667 409.329 70.4983 408.677 70.161 408.134C69.8237 407.577 69.3617 407.159 68.775 406.88C68.203 406.587 67.565 406.44 66.861 406.44C65.849 406.44 64.9837 406.763 64.265 407.408C63.561 408.053 63.1577 408.948 63.055 410.092H70.667ZM87.2576 410.51C87.2576 410.891 87.2356 411.295 87.1916 411.72H77.5556C77.6289 412.908 78.0323 413.839 78.7656 414.514C79.5136 415.174 80.4156 415.504 81.4716 415.504C82.3369 415.504 83.0556 415.306 83.6276 414.91C84.2143 414.499 84.6249 413.957 84.8596 413.282H87.0156C86.6929 414.441 86.0476 415.387 85.0796 416.12C84.1116 416.839 82.9089 417.198 81.4716 417.198C80.3276 417.198 79.3009 416.941 78.3916 416.428C77.4969 415.915 76.7929 415.189 76.2796 414.25C75.7663 413.297 75.5096 412.197 75.5096 410.95C75.5096 409.703 75.7589 408.611 76.2576 407.672C76.7563 406.733 77.4529 406.015 78.3476 405.516C79.2569 405.003 80.2983 404.746 81.4716 404.746C82.6156 404.746 83.6276 404.995 84.5076 405.494C85.3876 405.993 86.0623 406.682 86.5316 407.562C87.0156 408.427 87.2576 409.41 87.2576 410.51ZM85.1896 410.092C85.1896 409.329 85.0209 408.677 84.6836 408.134C84.3463 407.577 83.8843 407.159 83.2976 406.88C82.7256 406.587 82.0876 406.44 81.3836 406.44C80.3716 406.44 79.5063 406.763 78.7876 407.408C78.0836 408.053 77.6803 408.948 77.5776 410.092H85.1896ZM92.7822 406.902C93.1342 406.213 93.6328 405.677 94.2782 405.296C94.9382 404.915 95.7375 404.724 96.6762 404.724V406.792H96.1482C93.9042 406.792 92.7822 408.009 92.7822 410.444V417H90.7802V404.944H92.7822V406.902ZM104.135 417.198C103.211 417.198 102.383 417.044 101.649 416.736C100.916 416.413 100.337 415.973 99.9112 415.416C99.4859 414.844 99.2512 414.191 99.2072 413.458H101.275C101.334 414.059 101.613 414.551 102.111 414.932C102.625 415.313 103.292 415.504 104.113 415.504C104.876 415.504 105.477 415.335 105.917 414.998C106.357 414.661 106.577 414.235 106.577 413.722C106.577 413.194 106.343 412.805 105.873 412.556C105.404 412.292 104.678 412.035 103.695 411.786C102.801 411.551 102.067 411.317 101.495 411.082C100.938 410.833 100.454 410.473 100.043 410.004C99.6472 409.52 99.4492 408.889 99.4492 408.112C99.4492 407.496 99.6325 406.931 99.9992 406.418C100.366 405.905 100.887 405.501 101.561 405.208C102.236 404.9 103.006 404.746 103.871 404.746C105.206 404.746 106.284 405.083 107.105 405.758C107.927 406.433 108.367 407.357 108.425 408.53H106.423C106.379 407.899 106.123 407.393 105.653 407.012C105.199 406.631 104.583 406.44 103.805 406.44C103.087 406.44 102.515 406.594 102.089 406.902C101.664 407.21 101.451 407.613 101.451 408.112C101.451 408.508 101.576 408.838 101.825 409.102C102.089 409.351 102.412 409.557 102.793 409.718C103.189 409.865 103.732 410.033 104.421 410.224C105.287 410.459 105.991 410.693 106.533 410.928C107.076 411.148 107.538 411.485 107.919 411.94C108.315 412.395 108.521 412.989 108.535 413.722C108.535 414.382 108.352 414.976 107.985 415.504C107.619 416.032 107.098 416.45 106.423 416.758C105.763 417.051 105.001 417.198 104.135 417.198Z" fill="#B2B3CF"/>
<path d="M162.433 406.154C162.433 407.43 161.993 408.493 161.113 409.344C160.248 410.18 158.92 410.598 157.131 410.598H154.183V417H152.181V401.666H157.131C158.862 401.666 160.174 402.084 161.069 402.92C161.978 403.756 162.433 404.834 162.433 406.154ZM157.131 408.948C158.246 408.948 159.067 408.706 159.595 408.222C160.123 407.738 160.387 407.049 160.387 406.154C160.387 404.262 159.302 403.316 157.131 403.316H154.183V408.948H157.131ZM167.803 406.902C168.155 406.213 168.654 405.677 169.299 405.296C169.959 404.915 170.759 404.724 171.697 404.724V406.792H171.169C168.925 406.792 167.803 408.009 167.803 410.444V417H165.801V404.944H167.803V406.902ZM175.922 402.986C175.541 402.986 175.218 402.854 174.954 402.59C174.69 402.326 174.558 402.003 174.558 401.622C174.558 401.241 174.69 400.918 174.954 400.654C175.218 400.39 175.541 400.258 175.922 400.258C176.289 400.258 176.597 400.39 176.846 400.654C177.11 400.918 177.242 401.241 177.242 401.622C177.242 402.003 177.11 402.326 176.846 402.59C176.597 402.854 176.289 402.986 175.922 402.986ZM176.89 404.944V417H174.888V404.944H176.89ZM185.67 415.152L189.41 404.944H191.544L186.814 417H184.482L179.752 404.944H181.908L185.67 415.152ZM193.646 410.928C193.646 409.696 193.896 408.618 194.394 407.694C194.893 406.755 195.575 406.029 196.44 405.516C197.32 405.003 198.296 404.746 199.366 404.746C200.422 404.746 201.339 404.973 202.116 405.428C202.894 405.883 203.473 406.455 203.854 407.144V404.944H205.878V417H203.854V414.756C203.458 415.46 202.864 416.047 202.072 416.516C201.295 416.971 200.386 417.198 199.344 417.198C198.274 417.198 197.306 416.934 196.44 416.406C195.575 415.878 194.893 415.137 194.394 414.184C193.896 413.231 193.646 412.145 193.646 410.928ZM203.854 410.95C203.854 410.041 203.671 409.249 203.304 408.574C202.938 407.899 202.439 407.386 201.808 407.034C201.192 406.667 200.51 406.484 199.762 406.484C199.014 406.484 198.332 406.66 197.716 407.012C197.1 407.364 196.609 407.877 196.242 408.552C195.876 409.227 195.692 410.019 195.692 410.928C195.692 411.852 195.876 412.659 196.242 413.348C196.609 414.023 197.1 414.543 197.716 414.91C198.332 415.262 199.014 415.438 199.762 415.438C200.51 415.438 201.192 415.262 201.808 414.91C202.439 414.543 202.938 414.023 203.304 413.348C203.671 412.659 203.854 411.859 203.854 410.95ZM209.394 410.95C209.394 409.703 209.643 408.618 210.142 407.694C210.64 406.755 211.33 406.029 212.21 405.516C213.104 405.003 214.124 404.746 215.268 404.746C216.749 404.746 217.966 405.105 218.92 405.824C219.888 406.543 220.526 407.54 220.834 408.816H218.678C218.472 408.083 218.069 407.503 217.468 407.078C216.881 406.653 216.148 406.44 215.268 406.44C214.124 406.44 213.2 406.836 212.496 407.628C211.792 408.405 211.44 409.513 211.44 410.95C211.44 412.402 211.792 413.524 212.496 414.316C213.2 415.108 214.124 415.504 215.268 415.504C216.148 415.504 216.881 415.299 217.468 414.888C218.054 414.477 218.458 413.891 218.678 413.128H220.834C220.511 414.36 219.866 415.35 218.898 416.098C217.93 416.831 216.72 417.198 215.268 417.198C214.124 417.198 213.104 416.941 212.21 416.428C211.33 415.915 210.64 415.189 210.142 414.25C209.643 413.311 209.394 412.211 209.394 410.95ZM234.769 404.944L227.509 422.676H225.441L227.817 416.868L222.955 404.944H225.177L228.961 414.712L232.701 404.944H234.769ZM254.659 406.154C254.659 407.43 254.219 408.493 253.339 409.344C252.473 410.18 251.146 410.598 249.357 410.598H246.409V417H244.407V401.666H249.357C251.087 401.666 252.4 402.084 253.295 402.92C254.204 403.756 254.659 404.834 254.659 406.154ZM249.357 408.948C250.471 408.948 251.293 408.706 251.821 408.222C252.349 407.738 252.613 407.049 252.613 406.154C252.613 404.262 251.527 403.316 249.357 403.316H246.409V408.948H249.357ZM263.285 417.198C262.155 417.198 261.129 416.941 260.205 416.428C259.295 415.915 258.577 415.189 258.049 414.25C257.535 413.297 257.279 412.197 257.279 410.95C257.279 409.718 257.543 408.633 258.071 407.694C258.613 406.741 259.347 406.015 260.271 405.516C261.195 405.003 262.229 404.746 263.373 404.746C264.517 404.746 265.551 405.003 266.475 405.516C267.399 406.015 268.125 406.733 268.653 407.672C269.195 408.611 269.467 409.703 269.467 410.95C269.467 412.197 269.188 413.297 268.631 414.25C268.088 415.189 267.347 415.915 266.409 416.428C265.47 416.941 264.429 417.198 263.285 417.198ZM263.285 415.438C264.003 415.438 264.678 415.269 265.309 414.932C265.939 414.595 266.445 414.089 266.827 413.414C267.223 412.739 267.421 411.918 267.421 410.95C267.421 409.982 267.23 409.161 266.849 408.486C266.467 407.811 265.969 407.313 265.353 406.99C264.737 406.653 264.069 406.484 263.351 406.484C262.617 406.484 261.943 406.653 261.327 406.99C260.725 407.313 260.241 407.811 259.875 408.486C259.508 409.161 259.325 409.982 259.325 410.95C259.325 411.933 259.501 412.761 259.853 413.436C260.219 414.111 260.703 414.617 261.305 414.954C261.906 415.277 262.566 415.438 263.285 415.438ZM274.981 400.72V417H272.979V400.72H274.981ZM280.307 402.986C279.926 402.986 279.603 402.854 279.339 402.59C279.075 402.326 278.943 402.003 278.943 401.622C278.943 401.241 279.075 400.918 279.339 400.654C279.603 400.39 279.926 400.258 280.307 400.258C280.674 400.258 280.982 400.39 281.231 400.654C281.495 400.918 281.627 401.241 281.627 401.622C281.627 402.003 281.495 402.326 281.231 402.59C280.982 402.854 280.674 402.986 280.307 402.986ZM281.275 404.944V417H279.273V404.944H281.275ZM284.819 410.95C284.819 409.703 285.069 408.618 285.567 407.694C286.066 406.755 286.755 406.029 287.635 405.516C288.53 405.003 289.549 404.746 290.693 404.746C292.175 404.746 293.392 405.105 294.345 405.824C295.313 406.543 295.951 407.54 296.259 408.816H294.103C293.898 408.083 293.495 407.503 292.893 407.078C292.307 406.653 291.573 406.44 290.693 406.44C289.549 406.44 288.625 406.836 287.921 407.628C287.217 408.405 286.865 409.513 286.865 410.95C286.865 412.402 287.217 413.524 287.921 414.316C288.625 415.108 289.549 415.504 290.693 415.504C291.573 415.504 292.307 415.299 292.893 414.888C293.48 414.477 293.883 413.891 294.103 413.128H296.259C295.937 414.36 295.291 415.35 294.323 416.098C293.355 416.831 292.145 417.198 290.693 417.198C289.549 417.198 288.53 416.941 287.635 416.428C286.755 415.915 286.066 415.189 285.567 414.25C285.069 413.311 284.819 412.211 284.819 410.95ZM310.194 404.944L302.934 422.676H300.866L303.242 416.868L298.38 404.944H300.602L304.386 414.712L308.126 404.944H310.194Z" fill="#B2B3CF"/>
<path d="M362.456 401.666V403.294H358.276V417H356.274V403.294H352.072V401.666H362.456ZM376.8 410.51C376.8 410.891 376.778 411.295 376.734 411.72H367.098C367.171 412.908 367.575 413.839 368.308 414.514C369.056 415.174 369.958 415.504 371.014 415.504C371.879 415.504 372.598 415.306 373.17 414.91C373.757 414.499 374.167 413.957 374.402 413.282H376.558C376.235 414.441 375.59 415.387 374.622 416.12C373.654 416.839 372.451 417.198 371.014 417.198C369.87 417.198 368.843 416.941 367.934 416.428C367.039 415.915 366.335 415.189 365.822 414.25C365.309 413.297 365.052 412.197 365.052 410.95C365.052 409.703 365.301 408.611 365.8 407.672C366.299 406.733 366.995 406.015 367.89 405.516C368.799 405.003 369.841 404.746 371.014 404.746C372.158 404.746 373.17 404.995 374.05 405.494C374.93 405.993 375.605 406.682 376.074 407.562C376.558 408.427 376.8 409.41 376.8 410.51ZM374.732 410.092C374.732 409.329 374.563 408.677 374.226 408.134C373.889 407.577 373.427 407.159 372.84 406.88C372.268 406.587 371.63 406.44 370.926 406.44C369.914 406.44 369.049 406.763 368.33 407.408C367.626 408.053 367.223 408.948 367.12 410.092H374.732ZM382.325 406.902C382.677 406.213 383.175 405.677 383.821 405.296C384.481 404.915 385.28 404.724 386.219 404.724V406.792H385.691C383.447 406.792 382.325 408.009 382.325 410.444V417H380.323V404.944H382.325V406.902ZM403.908 404.724C404.846 404.724 405.682 404.922 406.416 405.318C407.149 405.699 407.728 406.279 408.154 407.056C408.579 407.833 408.792 408.779 408.792 409.894V417H406.812V410.18C406.812 408.977 406.511 408.061 405.91 407.43C405.323 406.785 404.524 406.462 403.512 406.462C402.47 406.462 401.642 406.799 401.026 407.474C400.41 408.134 400.102 409.095 400.102 410.356V417H398.122V410.18C398.122 408.977 397.821 408.061 397.22 407.43C396.633 406.785 395.834 406.462 394.822 406.462C393.78 406.462 392.952 406.799 392.336 407.474C391.72 408.134 391.412 409.095 391.412 410.356V417H389.41V404.944H391.412V406.682C391.808 406.051 392.336 405.567 392.996 405.23C393.67 404.893 394.411 404.724 395.218 404.724C396.23 404.724 397.124 404.951 397.902 405.406C398.679 405.861 399.258 406.528 399.64 407.408C399.977 406.557 400.534 405.897 401.312 405.428C402.089 404.959 402.954 404.724 403.908 404.724ZM417.224 417.198C416.3 417.198 415.471 417.044 414.738 416.736C414.004 416.413 413.425 415.973 413 415.416C412.574 414.844 412.34 414.191 412.296 413.458H414.364C414.422 414.059 414.701 414.551 415.2 414.932C415.713 415.313 416.38 415.504 417.202 415.504C417.964 415.504 418.566 415.335 419.006 414.998C419.446 414.661 419.666 414.235 419.666 413.722C419.666 413.194 419.431 412.805 418.962 412.556C418.492 412.292 417.766 412.035 416.784 411.786C415.889 411.551 415.156 411.317 414.584 411.082C414.026 410.833 413.542 410.473 413.132 410.004C412.736 409.52 412.538 408.889 412.538 408.112C412.538 407.496 412.721 406.931 413.088 406.418C413.454 405.905 413.975 405.501 414.65 405.208C415.324 404.9 416.094 404.746 416.96 404.746C418.294 404.746 419.372 405.083 420.194 405.758C421.015 406.433 421.455 407.357 421.514 408.53H419.512C419.468 407.899 419.211 407.393 418.742 407.012C418.287 406.631 417.671 406.44 416.894 406.44C416.175 406.44 415.603 406.594 415.178 406.902C414.752 407.21 414.54 407.613 414.54 408.112C414.54 408.508 414.664 408.838 414.914 409.102C415.178 409.351 415.5 409.557 415.882 409.718C416.278 409.865 416.82 410.033 417.51 410.224C418.375 410.459 419.079 410.693 419.622 410.928C420.164 411.148 420.626 411.485 421.008 411.94C421.404 412.395 421.609 412.989 421.624 413.722C421.624 414.382 421.44 414.976 421.074 415.504C420.707 416.032 420.186 416.45 419.512 416.758C418.852 417.051 418.089 417.198 417.224 417.198ZM443.845 417L441.843 414.976C441.095 415.753 440.296 416.333 439.445 416.714C438.594 417.081 437.634 417.264 436.563 417.264C435.507 417.264 434.568 417.073 433.747 416.692C432.94 416.311 432.31 415.768 431.855 415.064C431.415 414.36 431.195 413.539 431.195 412.6C431.195 411.529 431.496 410.591 432.097 409.784C432.713 408.963 433.615 408.317 434.803 407.848C434.334 407.291 433.996 406.777 433.791 406.308C433.586 405.839 433.483 405.325 433.483 404.768C433.483 404.123 433.644 403.543 433.967 403.03C434.304 402.502 434.781 402.091 435.397 401.798C436.013 401.505 436.724 401.358 437.531 401.358C438.323 401.358 439.012 401.512 439.599 401.82C440.186 402.128 440.626 402.561 440.919 403.118C441.212 403.661 441.344 404.269 441.315 404.944H439.313C439.328 404.343 439.159 403.873 438.807 403.536C438.455 403.184 438 403.008 437.443 403.008C436.856 403.008 436.38 403.177 436.013 403.514C435.661 403.837 435.485 404.255 435.485 404.768C435.485 405.208 435.602 405.633 435.837 406.044C436.086 406.455 436.497 406.961 437.069 407.562L441.645 412.16L442.041 411.544L443.537 409.036H445.693L443.889 412.16C443.64 412.6 443.346 413.062 443.009 413.546L446.463 417H443.845ZM436.563 415.548C437.355 415.548 438.066 415.394 438.697 415.086C439.342 414.778 439.951 414.301 440.523 413.656L436.013 409.124C434.136 409.843 433.197 410.979 433.197 412.534C433.197 413.399 433.505 414.118 434.121 414.69C434.752 415.262 435.566 415.548 436.563 415.548ZM455.216 409.322C455.216 407.826 455.553 406.484 456.228 405.296C456.903 404.093 457.819 403.155 458.978 402.48C460.151 401.805 461.449 401.468 462.872 401.468C464.544 401.468 466.003 401.871 467.25 402.678C468.497 403.485 469.406 404.629 469.978 406.11H467.58C467.155 405.186 466.539 404.475 465.732 403.976C464.94 403.477 463.987 403.228 462.872 403.228C461.801 403.228 460.841 403.477 459.99 403.976C459.139 404.475 458.472 405.186 457.988 406.11C457.504 407.019 457.262 408.09 457.262 409.322C457.262 410.539 457.504 411.61 457.988 412.534C458.472 413.443 459.139 414.147 459.99 414.646C460.841 415.145 461.801 415.394 462.872 415.394C463.987 415.394 464.94 415.152 465.732 414.668C466.539 414.169 467.155 413.458 467.58 412.534H469.978C469.406 414.001 468.497 415.137 467.25 415.944C466.003 416.736 464.544 417.132 462.872 417.132C461.449 417.132 460.151 416.802 458.978 416.142C457.819 415.467 456.903 414.536 456.228 413.348C455.553 412.16 455.216 410.818 455.216 409.322ZM479.096 417.198C477.967 417.198 476.94 416.941 476.016 416.428C475.107 415.915 474.388 415.189 473.86 414.25C473.347 413.297 473.09 412.197 473.09 410.95C473.09 409.718 473.354 408.633 473.882 407.694C474.425 406.741 475.158 406.015 476.082 405.516C477.006 405.003 478.04 404.746 479.184 404.746C480.328 404.746 481.362 405.003 482.286 405.516C483.21 406.015 483.936 406.733 484.464 407.672C485.007 408.611 485.278 409.703 485.278 410.95C485.278 412.197 484.999 413.297 484.442 414.25C483.899 415.189 483.159 415.915 482.22 416.428C481.281 416.941 480.24 417.198 479.096 417.198ZM479.096 415.438C479.815 415.438 480.489 415.269 481.12 414.932C481.751 414.595 482.257 414.089 482.638 413.414C483.034 412.739 483.232 411.918 483.232 410.95C483.232 409.982 483.041 409.161 482.66 408.486C482.279 407.811 481.78 407.313 481.164 406.99C480.548 406.653 479.881 406.484 479.162 406.484C478.429 406.484 477.754 406.653 477.138 406.99C476.537 407.313 476.053 407.811 475.686 408.486C475.319 409.161 475.136 409.982 475.136 410.95C475.136 411.933 475.312 412.761 475.664 413.436C476.031 414.111 476.515 414.617 477.116 414.954C477.717 415.277 478.377 415.438 479.096 415.438ZM494.664 404.724C496.131 404.724 497.319 405.171 498.228 406.066C499.138 406.946 499.592 408.222 499.592 409.894V417H497.612V410.18C497.612 408.977 497.312 408.061 496.71 407.43C496.109 406.785 495.288 406.462 494.246 406.462C493.19 406.462 492.347 406.792 491.716 407.452C491.1 408.112 490.792 409.073 490.792 410.334V417H488.79V404.944H490.792V406.66C491.188 406.044 491.724 405.567 492.398 405.23C493.088 404.893 493.843 404.724 494.664 404.724ZM502.995 410.928C502.995 409.696 503.244 408.618 503.743 407.694C504.241 406.755 504.923 406.029 505.789 405.516C506.669 405.003 507.651 404.746 508.737 404.746C509.675 404.746 510.548 404.966 511.355 405.406C512.161 405.831 512.777 406.396 513.203 407.1V400.72H515.227V417H513.203V414.734C512.807 415.453 512.22 416.047 511.443 416.516C510.665 416.971 509.756 417.198 508.715 417.198C507.644 417.198 506.669 416.934 505.789 416.406C504.923 415.878 504.241 415.137 503.743 414.184C503.244 413.231 502.995 412.145 502.995 410.928ZM513.203 410.95C513.203 410.041 513.019 409.249 512.653 408.574C512.286 407.899 511.787 407.386 511.157 407.034C510.541 406.667 509.859 406.484 509.111 406.484C508.363 406.484 507.681 406.66 507.065 407.012C506.449 407.364 505.957 407.877 505.591 408.552C505.224 409.227 505.041 410.019 505.041 410.928C505.041 411.852 505.224 412.659 505.591 413.348C505.957 414.023 506.449 414.543 507.065 414.91C507.681 415.262 508.363 415.438 509.111 415.438C509.859 415.438 510.541 415.262 511.157 414.91C511.787 414.543 512.286 414.023 512.653 413.348C513.019 412.659 513.203 411.859 513.203 410.95ZM520.524 402.986C520.142 402.986 519.82 402.854 519.556 402.59C519.292 402.326 519.16 402.003 519.16 401.622C519.16 401.241 519.292 400.918 519.556 400.654C519.82 400.39 520.142 400.258 520.524 400.258C520.89 400.258 521.198 400.39 521.448 400.654C521.712 400.918 521.844 401.241 521.844 401.622C521.844 402.003 521.712 402.326 521.448 402.59C521.198 402.854 520.89 402.986 520.524 402.986ZM521.492 404.944V417H519.49V404.944H521.492ZM528.226 406.594V413.7C528.226 414.287 528.351 414.705 528.6 414.954C528.849 415.189 529.282 415.306 529.898 415.306H531.372V417H529.568C528.453 417 527.617 416.743 527.06 416.23C526.503 415.717 526.224 414.873 526.224 413.7V406.594H524.662V404.944H526.224V401.908H528.226V404.944H531.372V406.594H528.226ZM535.712 402.986C535.33 402.986 535.008 402.854 534.744 402.59C534.48 402.326 534.348 402.003 534.348 401.622C534.348 401.241 534.48 400.918 534.744 400.654C535.008 400.39 535.33 400.258 535.712 400.258C536.078 400.258 536.386 400.39 536.636 400.654C536.9 400.918 537.032 401.241 537.032 401.622C537.032 402.003 536.9 402.326 536.636 402.59C536.386 402.854 536.078 402.986 535.712 402.986ZM536.68 404.944V417H534.678V404.944H536.68ZM546.23 417.198C545.1 417.198 544.074 416.941 543.15 416.428C542.24 415.915 541.522 415.189 540.994 414.25C540.48 413.297 540.224 412.197 540.224 410.95C540.224 409.718 540.488 408.633 541.016 407.694C541.558 406.741 542.292 406.015 543.216 405.516C544.14 405.003 545.174 404.746 546.318 404.746C547.462 404.746 548.496 405.003 549.42 405.516C550.344 406.015 551.07 406.733 551.598 407.672C552.14 408.611 552.412 409.703 552.412 410.95C552.412 412.197 552.133 413.297 551.576 414.25C551.033 415.189 550.292 415.915 549.354 416.428C548.415 416.941 547.374 417.198 546.23 417.198ZM546.23 415.438C546.948 415.438 547.623 415.269 548.254 414.932C548.884 414.595 549.39 414.089 549.772 413.414C550.168 412.739 550.366 411.918 550.366 410.95C550.366 409.982 550.175 409.161 549.794 408.486C549.412 407.811 548.914 407.313 548.298 406.99C547.682 406.653 547.014 406.484 546.296 406.484C545.562 406.484 544.888 406.653 544.272 406.99C543.67 407.313 543.186 407.811 542.82 408.486C542.453 409.161 542.27 409.982 542.27 410.95C542.27 411.933 542.446 412.761 542.798 413.436C543.164 414.111 543.648 414.617 544.25 414.954C544.851 415.277 545.511 415.438 546.23 415.438ZM561.798 404.724C563.265 404.724 564.453 405.171 565.362 406.066C566.271 406.946 566.726 408.222 566.726 409.894V417H564.746V410.18C564.746 408.977 564.445 408.061 563.844 407.43C563.243 406.785 562.421 406.462 561.38 406.462C560.324 406.462 559.481 406.792 558.85 407.452C558.234 408.112 557.926 409.073 557.926 410.334V417H555.924V404.944H557.926V406.66C558.322 406.044 558.857 405.567 559.532 405.23C560.221 404.893 560.977 404.724 561.798 404.724ZM575.144 417.198C574.22 417.198 573.391 417.044 572.658 416.736C571.925 416.413 571.345 415.973 570.92 415.416C570.495 414.844 570.26 414.191 570.216 413.458H572.284C572.343 414.059 572.621 414.551 573.12 414.932C573.633 415.313 574.301 415.504 575.122 415.504C575.885 415.504 576.486 415.335 576.926 414.998C577.366 414.661 577.586 414.235 577.586 413.722C577.586 413.194 577.351 412.805 576.882 412.556C576.413 412.292 575.687 412.035 574.704 411.786C573.809 411.551 573.076 411.317 572.504 411.082C571.947 410.833 571.463 410.473 571.052 410.004C570.656 409.52 570.458 408.889 570.458 408.112C570.458 407.496 570.641 406.931 571.008 406.418C571.375 405.905 571.895 405.501 572.57 405.208C573.245 404.9 574.015 404.746 574.88 404.746C576.215 404.746 577.293 405.083 578.114 405.758C578.935 406.433 579.375 407.357 579.434 408.53H577.432C577.388 407.899 577.131 407.393 576.662 407.012C576.207 406.631 575.591 406.44 574.814 406.44C574.095 406.44 573.523 406.594 573.098 406.902C572.673 407.21 572.46 407.613 572.46 408.112C572.46 408.508 572.585 408.838 572.834 409.102C573.098 409.351 573.421 409.557 573.802 409.718C574.198 409.865 574.741 410.033 575.43 410.224C576.295 410.459 576.999 410.693 577.542 410.928C578.085 411.148 578.547 411.485 578.928 411.94C579.324 412.395 579.529 412.989 579.544 413.722C579.544 414.382 579.361 414.976 578.994 415.504C578.627 416.032 578.107 416.45 577.432 416.758C576.772 417.051 576.009 417.198 575.144 417.198Z" fill="#B2B3CF"/>
<rect x="0.5" y="237.5" width="399" height="59" rx="29.5" stroke="#83839A"/>
<path d="M41.5613 260.06L37.0213 268.74V274H35.2013V268.74L30.6413 260.06H32.6613L36.1013 267.12L39.5413 260.06H41.5613ZM49.061 274.18C48.0344 274.18 47.101 273.947 46.261 273.48C45.4344 273.013 44.781 272.353 44.301 271.5C43.8344 270.633 43.601 269.633 43.601 268.5C43.601 267.38 43.841 266.393 44.321 265.54C44.8144 264.673 45.481 264.013 46.321 263.56C47.161 263.093 48.101 262.86 49.141 262.86C50.181 262.86 51.121 263.093 51.961 263.56C52.801 264.013 53.461 264.667 53.941 265.52C54.4344 266.373 54.681 267.367 54.681 268.5C54.681 269.633 54.4277 270.633 53.921 271.5C53.4277 272.353 52.7544 273.013 51.901 273.48C51.0477 273.947 50.101 274.18 49.061 274.18ZM49.061 272.58C49.7144 272.58 50.3277 272.427 50.901 272.12C51.4744 271.813 51.9344 271.353 52.281 270.74C52.641 270.127 52.821 269.38 52.821 268.5C52.821 267.62 52.6477 266.873 52.301 266.26C51.9544 265.647 51.501 265.193 50.941 264.9C50.381 264.593 49.7744 264.44 49.121 264.44C48.4544 264.44 47.841 264.593 47.281 264.9C46.7344 265.193 46.2944 265.647 45.961 266.26C45.6277 266.873 45.461 267.62 45.461 268.5C45.461 269.393 45.621 270.147 45.941 270.76C46.2744 271.373 46.7144 271.833 47.261 272.14C47.8077 272.433 48.4077 272.58 49.061 272.58ZM67.594 263.04V274H65.774V272.38C65.4273 272.94 64.9407 273.38 64.314 273.7C63.7007 274.007 63.0207 274.16 62.274 274.16C61.4207 274.16 60.654 273.987 59.974 273.64C59.294 273.28 58.754 272.747 58.354 272.04C57.9673 271.333 57.774 270.473 57.774 269.46V263.04H59.574V269.22C59.574 270.3 59.8473 271.133 60.394 271.72C60.9407 272.293 61.6873 272.58 62.634 272.58C63.6073 272.58 64.374 272.28 64.934 271.68C65.494 271.08 65.774 270.207 65.774 269.06V263.04H67.594ZM73.287 264.82C73.607 264.193 74.0603 263.707 74.647 263.36C75.247 263.013 75.9736 262.84 76.827 262.84V264.72H76.347C74.307 264.72 73.287 265.827 73.287 268.04V274H71.467V263.04H73.287V264.82ZM87.6799 261.54V266.2H92.7599V267.7H87.6799V272.5H93.3599V274H85.8599V260.04H93.3599V261.54H87.6799ZM110.094 262.84C110.947 262.84 111.707 263.02 112.374 263.38C113.041 263.727 113.567 264.253 113.954 264.96C114.341 265.667 114.534 266.527 114.534 267.54V274H112.734V267.8C112.734 266.707 112.46 265.873 111.914 265.3C111.381 264.713 110.654 264.42 109.734 264.42C108.787 264.42 108.034 264.727 107.474 265.34C106.914 265.94 106.634 266.813 106.634 267.96V274H104.834V267.8C104.834 266.707 104.56 265.873 104.014 265.3C103.48 264.713 102.754 264.42 101.834 264.42C100.887 264.42 100.134 264.727 99.5738 265.34C99.0138 265.94 98.7338 266.813 98.7338 267.96V274H96.9138V263.04H98.7338V264.62C99.0938 264.047 99.5738 263.607 100.174 263.3C100.787 262.993 101.46 262.84 102.194 262.84C103.114 262.84 103.927 263.047 104.634 263.46C105.34 263.873 105.867 264.48 106.214 265.28C106.52 264.507 107.027 263.907 107.734 263.48C108.44 263.053 109.227 262.84 110.094 262.84ZM117.639 268.48C117.639 267.36 117.866 266.38 118.319 265.54C118.773 264.687 119.393 264.027 120.179 263.56C120.979 263.093 121.866 262.86 122.839 262.86C123.799 262.86 124.633 263.067 125.339 263.48C126.046 263.893 126.573 264.413 126.919 265.04V263.04H128.759V274H126.919V271.96C126.559 272.6 126.019 273.133 125.299 273.56C124.593 273.973 123.766 274.18 122.819 274.18C121.846 274.18 120.966 273.94 120.179 273.46C119.393 272.98 118.773 272.307 118.319 271.44C117.866 270.573 117.639 269.587 117.639 268.48ZM126.919 268.5C126.919 267.673 126.753 266.953 126.419 266.34C126.086 265.727 125.633 265.26 125.059 264.94C124.499 264.607 123.879 264.44 123.199 264.44C122.519 264.44 121.899 264.6 121.339 264.92C120.779 265.24 120.333 265.707 119.999 266.32C119.666 266.933 119.499 267.653 119.499 268.48C119.499 269.32 119.666 270.053 119.999 270.68C120.333 271.293 120.779 271.767 121.339 272.1C121.899 272.42 122.519 272.58 123.199 272.58C123.879 272.58 124.499 272.42 125.059 272.1C125.633 271.767 126.086 271.293 126.419 270.68C126.753 270.053 126.919 269.327 126.919 268.5ZM133.575 261.26C133.228 261.26 132.935 261.14 132.695 260.9C132.455 260.66 132.335 260.367 132.335 260.02C132.335 259.673 132.455 259.38 132.695 259.14C132.935 258.9 133.228 258.78 133.575 258.78C133.908 258.78 134.188 258.9 134.415 259.14C134.655 259.38 134.775 259.673 134.775 260.02C134.775 260.367 134.655 260.66 134.415 260.9C134.188 261.14 133.908 261.26 133.575 261.26ZM134.455 263.04V274H132.635V263.04H134.455ZM140.177 259.2V274H138.357V259.2H140.177Z" fill="#83839A"/>
<g opacity="0.5" filter="url(#filter0_f_608_2)">
<rect x="432" y="267" width="151" height="29" rx="14.5" fill="#545AE8"/>
</g>
<rect x="420" y="237" width="179" height="60" rx="30" fill="url(#paint0_linear_608_2)"/>
<path d="M460.688 275.154C459.661 275.154 458.737 274.978 457.916 274.626C457.095 274.259 456.449 273.746 455.98 273.086C455.511 272.426 455.276 271.656 455.276 270.776H457.96C458.019 271.436 458.275 271.979 458.73 272.404C459.199 272.829 459.852 273.042 460.688 273.042C461.553 273.042 462.228 272.837 462.712 272.426C463.196 272.001 463.438 271.458 463.438 270.798C463.438 270.285 463.284 269.867 462.976 269.544C462.683 269.221 462.309 268.972 461.854 268.796C461.414 268.62 460.798 268.429 460.006 268.224C459.009 267.96 458.195 267.696 457.564 267.432C456.948 267.153 456.42 266.728 455.98 266.156C455.54 265.584 455.32 264.821 455.32 263.868C455.32 262.988 455.54 262.218 455.98 261.558C456.42 260.898 457.036 260.392 457.828 260.04C458.62 259.688 459.537 259.512 460.578 259.512C462.059 259.512 463.269 259.886 464.208 260.634C465.161 261.367 465.689 262.379 465.792 263.67H463.02C462.976 263.113 462.712 262.636 462.228 262.24C461.744 261.844 461.106 261.646 460.314 261.646C459.595 261.646 459.009 261.829 458.554 262.196C458.099 262.563 457.872 263.091 457.872 263.78C457.872 264.249 458.011 264.638 458.29 264.946C458.583 265.239 458.95 265.474 459.39 265.65C459.83 265.826 460.431 266.017 461.194 266.222C462.206 266.501 463.027 266.779 463.658 267.058C464.303 267.337 464.846 267.769 465.286 268.356C465.741 268.928 465.968 269.698 465.968 270.666C465.968 271.443 465.755 272.177 465.33 272.866C464.919 273.555 464.311 274.113 463.504 274.538C462.712 274.949 461.773 275.154 460.688 275.154ZM479.905 262.878V275H477.397V273.57C477.001 274.069 476.481 274.465 475.835 274.758C475.205 275.037 474.53 275.176 473.811 275.176C472.858 275.176 472 274.978 471.237 274.582C470.489 274.186 469.895 273.599 469.455 272.822C469.03 272.045 468.817 271.106 468.817 270.006V262.878H471.303V269.632C471.303 270.717 471.575 271.553 472.117 272.14C472.66 272.712 473.401 272.998 474.339 272.998C475.278 272.998 476.019 272.712 476.561 272.14C477.119 271.553 477.397 270.717 477.397 269.632V262.878H479.905ZM485.722 264.682C486.148 264.095 486.727 263.619 487.46 263.252C488.208 262.871 489.037 262.68 489.946 262.68C491.017 262.68 491.985 262.937 492.85 263.45C493.716 263.963 494.398 264.697 494.896 265.65C495.395 266.589 495.644 267.667 495.644 268.884C495.644 270.101 495.395 271.194 494.896 272.162C494.398 273.115 493.708 273.863 492.828 274.406C491.963 274.934 491.002 275.198 489.946 275.198C489.008 275.198 488.172 275.015 487.438 274.648C486.72 274.281 486.148 273.812 485.722 273.24V275H483.214V258.72H485.722V264.682ZM493.092 268.884C493.092 268.048 492.916 267.329 492.564 266.728C492.227 266.112 491.772 265.65 491.2 265.342C490.643 265.019 490.042 264.858 489.396 264.858C488.766 264.858 488.164 265.019 487.592 265.342C487.035 265.665 486.58 266.134 486.228 266.75C485.891 267.366 485.722 268.092 485.722 268.928C485.722 269.764 485.891 270.497 486.228 271.128C486.58 271.744 487.035 272.213 487.592 272.536C488.164 272.859 488.766 273.02 489.396 273.02C490.042 273.02 490.643 272.859 491.2 272.536C491.772 272.199 492.227 271.715 492.564 271.084C492.916 270.453 493.092 269.72 493.092 268.884ZM502.525 275.198C501.571 275.198 500.713 275.029 499.951 274.692C499.203 274.34 498.609 273.871 498.169 273.284C497.729 272.683 497.494 272.015 497.465 271.282H500.061C500.105 271.795 500.347 272.228 500.787 272.58C501.241 272.917 501.806 273.086 502.481 273.086C503.185 273.086 503.727 272.954 504.109 272.69C504.505 272.411 504.703 272.059 504.703 271.634C504.703 271.179 504.483 270.842 504.043 270.622C503.617 270.402 502.935 270.16 501.997 269.896C501.087 269.647 500.347 269.405 499.775 269.17C499.203 268.935 498.704 268.576 498.279 268.092C497.868 267.608 497.663 266.97 497.663 266.178C497.663 265.533 497.853 264.946 498.235 264.418C498.616 263.875 499.159 263.45 499.863 263.142C500.581 262.834 501.403 262.68 502.327 262.68C503.705 262.68 504.813 263.032 505.649 263.736C506.499 264.425 506.954 265.371 507.013 266.574H504.505C504.461 266.031 504.241 265.599 503.845 265.276C503.449 264.953 502.913 264.792 502.239 264.792C501.579 264.792 501.073 264.917 500.721 265.166C500.369 265.415 500.193 265.745 500.193 266.156C500.193 266.479 500.31 266.75 500.545 266.97C500.779 267.19 501.065 267.366 501.403 267.498C501.74 267.615 502.239 267.769 502.899 267.96C503.779 268.195 504.497 268.437 505.055 268.686C505.627 268.921 506.118 269.273 506.529 269.742C506.939 270.211 507.152 270.835 507.167 271.612C507.167 272.301 506.976 272.917 506.595 273.46C506.213 274.003 505.671 274.428 504.967 274.736C504.277 275.044 503.463 275.198 502.525 275.198ZM509.041 268.928C509.041 267.681 509.29 266.589 509.789 265.65C510.302 264.697 511.006 263.963 511.901 263.45C512.795 262.937 513.822 262.68 514.981 262.68C516.447 262.68 517.657 263.032 518.611 263.736C519.579 264.425 520.231 265.415 520.569 266.706H517.863C517.643 266.105 517.291 265.635 516.807 265.298C516.323 264.961 515.714 264.792 514.981 264.792C513.954 264.792 513.133 265.159 512.517 265.892C511.915 266.611 511.615 267.623 511.615 268.928C511.615 270.233 511.915 271.253 512.517 271.986C513.133 272.719 513.954 273.086 514.981 273.086C516.433 273.086 517.393 272.448 517.863 271.172H520.569C520.217 272.404 519.557 273.387 518.589 274.12C517.621 274.839 516.418 275.198 514.981 275.198C513.822 275.198 512.795 274.941 511.901 274.428C511.006 273.9 510.302 273.167 509.789 272.228C509.29 271.275 509.041 270.175 509.041 268.928ZM525.576 264.638C525.943 264.022 526.427 263.545 527.028 263.208C527.644 262.856 528.37 262.68 529.206 262.68V265.276H528.568C527.585 265.276 526.837 265.525 526.324 266.024C525.825 266.523 525.576 267.388 525.576 268.62V275H523.068V262.878H525.576V264.638ZM532.787 261.272C532.333 261.272 531.951 261.118 531.643 260.81C531.335 260.502 531.181 260.121 531.181 259.666C531.181 259.211 531.335 258.83 531.643 258.522C531.951 258.214 532.333 258.06 532.787 258.06C533.227 258.06 533.601 258.214 533.909 258.522C534.217 258.83 534.371 259.211 534.371 259.666C534.371 260.121 534.217 260.502 533.909 260.81C533.601 261.118 533.227 261.272 532.787 261.272ZM534.019 262.878V275H531.511V262.878H534.019ZM539.82 264.682C540.245 264.095 540.825 263.619 541.558 263.252C542.306 262.871 543.135 262.68 544.044 262.68C545.115 262.68 546.083 262.937 546.948 263.45C547.813 263.963 548.495 264.697 548.994 265.65C549.493 266.589 549.742 267.667 549.742 268.884C549.742 270.101 549.493 271.194 548.994 272.162C548.495 273.115 547.806 273.863 546.926 274.406C546.061 274.934 545.1 275.198 544.044 275.198C543.105 275.198 542.269 275.015 541.536 274.648C540.817 274.281 540.245 273.812 539.82 273.24V275H537.312V258.72H539.82V264.682ZM547.19 268.884C547.19 268.048 547.014 267.329 546.662 266.728C546.325 266.112 545.87 265.65 545.298 265.342C544.741 265.019 544.139 264.858 543.494 264.858C542.863 264.858 542.262 265.019 541.69 265.342C541.133 265.665 540.678 266.134 540.326 266.75C539.989 267.366 539.82 268.092 539.82 268.928C539.82 269.764 539.989 270.497 540.326 271.128C540.678 271.744 541.133 272.213 541.69 272.536C542.262 272.859 542.863 273.02 543.494 273.02C544.139 273.02 544.741 272.859 545.298 272.536C545.87 272.199 546.325 271.715 546.662 271.084C547.014 270.453 547.19 269.72 547.19 268.884ZM563.332 268.642C563.332 269.097 563.303 269.507 563.244 269.874H553.982C554.056 270.842 554.415 271.619 555.06 272.206C555.706 272.793 556.498 273.086 557.436 273.086C558.786 273.086 559.739 272.521 560.296 271.392H563.002C562.636 272.507 561.968 273.423 561 274.142C560.047 274.846 558.859 275.198 557.436 275.198C556.278 275.198 555.236 274.941 554.312 274.428C553.403 273.9 552.684 273.167 552.156 272.228C551.643 271.275 551.386 270.175 551.386 268.928C551.386 267.681 551.636 266.589 552.134 265.65C552.648 264.697 553.359 263.963 554.268 263.45C555.192 262.937 556.248 262.68 557.436 262.68C558.58 262.68 559.6 262.929 560.494 263.428C561.389 263.927 562.086 264.631 562.584 265.54C563.083 266.435 563.332 267.469 563.332 268.642ZM560.714 267.85C560.7 266.926 560.37 266.185 559.724 265.628C559.079 265.071 558.28 264.792 557.326 264.792C556.461 264.792 555.72 265.071 555.104 265.628C554.488 266.171 554.122 266.911 554.004 267.85H560.714Z" fill="white"/>
<defs>
<filter id="filter0_f_608_2" x="378" y="213" width="259" height="137" filterUnits="userSpaceOnUse" color-interpolation-filters="sRGB">
<feFlood flood-opacity="0" result="BackgroundImageFix"/>
<feBlend mode="normal" in="SourceGraphic" in2="BackgroundImageFix" result="shape"/>
<feGaussianBlur stdDeviation="27" result="effect1_foregroundBlur_608_2"/>
</filter>
<linearGradient id="paint0_linear_608_2" x1="464.75" y1="237" x2="545.2" y2="303.565" gradientUnits="userSpaceOnUse">
<stop stop-color="#545AE7"/>
<stop offset="1" stop-color="#393FCF"/>
</linearGradient>
</defs>
</svg>
