<svg width="183" height="108" viewBox="0 0 183 108" fill="none" xmlns="http://www.w3.org/2000/svg">
<g filter="url(#filter0_f_2_34)">
<path d="M54 3L105 54L54 105L3 54L54 3Z" fill="#00E0FF"/>
</g>
<path d="M64.9062 61.375C64.9062 59.6719 64.4453 58.3672 63.5234 57.4609C62.6016 56.5547 60.9375 55.6719 58.5312 54.8125C56.125 53.9531 54.2812 53.0547 53 52.1172C51.7344 51.1641 50.7812 50.0859 50.1406 48.8828C49.5156 47.6641 49.2031 46.2734 49.2031 44.7109C49.2031 42.0078 50.1016 39.7812 51.8984 38.0312C53.7109 36.2812 56.0781 35.4062 59 35.4062C61 35.4062 62.7812 35.8594 64.3438 36.7656C65.9062 37.6562 67.1094 38.8984 67.9531 40.4922C68.7969 42.0859 69.2188 43.8359 69.2188 45.7422H64.9062C64.9062 43.6328 64.3984 42 63.3828 40.8438C62.3672 39.6875 60.9062 39.1094 59 39.1094C57.2656 39.1094 55.9219 39.5938 54.9688 40.5625C54.0156 41.5312 53.5391 42.8906 53.5391 44.6406C53.5391 46.0781 54.0547 47.2812 55.0859 48.25C56.1172 49.2188 57.7109 50.0859 59.8672 50.8516C63.2266 51.9609 65.625 53.3281 67.0625 54.9531C68.5156 56.5781 69.2422 58.7031 69.2422 61.3281C69.2422 64.0938 68.3438 66.3125 66.5469 67.9844C64.75 69.6406 62.3047 70.4688 59.2109 70.4688C57.2266 70.4688 55.3906 70.0391 53.7031 69.1797C52.0312 68.3047 50.7109 67.0859 49.7422 65.5234C48.7891 63.9453 48.3125 62.1406 48.3125 60.1094H52.625C52.625 62.2188 53.2109 63.8594 54.3828 65.0312C55.5703 66.2031 57.1797 66.7891 59.2109 66.7891C61.1016 66.7891 62.5234 66.3047 63.4766 65.3359C64.4297 64.3672 64.9062 63.0469 64.9062 61.375ZM80.6797 58.3984L78.4766 60.9297V70H74.3281V34H78.4766V55.5391L86.375 44.6406H91.3438L83.2812 55.2344L92.3984 70H87.5703L80.6797 58.3984ZM100.438 70H96.2891V44.6406H100.438V70ZM100.766 37.9141C100.766 38.6172 100.57 39.2031 100.18 39.6719C99.7891 40.1406 99.1953 40.375 98.3984 40.375C97.6172 40.375 97.0312 40.1406 96.6406 39.6719C96.25 39.2031 96.0547 38.6172 96.0547 37.9141C96.0547 37.2109 96.25 36.6172 96.6406 36.1328C97.0312 35.6484 97.6172 35.4062 98.3984 35.4062C99.1797 35.4062 99.7656 35.6562 100.156 36.1562C100.562 36.6406 100.766 37.2266 100.766 37.9141ZM111.453 70H107.305V34H111.453V70ZM122.469 70H118.32V34H122.469V70ZM133.484 70H129.336V44.6406H133.484V70ZM133.812 37.9141C133.812 38.6172 133.617 39.2031 133.227 39.6719C132.836 40.1406 132.242 40.375 131.445 40.375C130.664 40.375 130.078 40.1406 129.688 39.6719C129.297 39.2031 129.102 38.6172 129.102 37.9141C129.102 37.2109 129.297 36.6172 129.688 36.1328C130.078 35.6484 130.664 35.4062 131.445 35.4062C132.227 35.4062 132.812 35.6562 133.203 36.1562C133.609 36.6406 133.812 37.2266 133.812 37.9141ZM143.938 44.6406L144.055 47.3828C145.664 45.2422 147.719 44.1719 150.219 44.1719C154.703 44.1719 156.977 47.1641 157.039 53.1484V70H152.914V53.3359C152.914 51.3516 152.578 49.9453 151.906 49.1172C151.25 48.2734 150.258 47.8516 148.93 47.8516C147.898 47.8516 146.969 48.1953 146.141 48.8828C145.328 49.5703 144.672 50.4688 144.172 51.5781V70H140.023V44.6406H143.938ZM172.344 70.4688C169.188 70.4688 166.766 69.5312 165.078 67.6562C163.391 65.7656 162.531 63 162.5 59.3594V56.2891C162.5 52.5078 163.32 49.5469 164.961 47.4062C166.617 45.25 168.922 44.1719 171.875 44.1719C174.844 44.1719 177.062 45.1172 178.531 47.0078C180 48.8984 180.75 51.8438 180.781 55.8438V58.5625H166.625V59.1484C166.625 61.8672 167.133 63.8438 168.148 65.0781C169.18 66.3125 170.656 66.9297 172.578 66.9297C173.797 66.9297 174.867 66.7031 175.789 66.25C176.727 65.7812 177.602 65.0469 178.414 64.0469L180.57 66.6719C178.773 69.2031 176.031 70.4688 172.344 70.4688ZM171.875 47.7344C170.156 47.7344 168.883 48.3281 168.055 49.5156C167.227 50.6875 166.758 52.5156 166.648 55H176.633V54.4375C176.523 52.0312 176.086 50.3125 175.32 49.2812C174.57 48.25 173.422 47.7344 171.875 47.7344Z" fill="black"/>
<defs>
<filter id="filter0_f_2_34" x="0" y="0" width="108" height="108" filterUnits="userSpaceOnUse" color-interpolation-filters="sRGB">
<feFlood flood-opacity="0" result="BackgroundImageFix"/>
<feBlend mode="normal" in="SourceGraphic" in2="BackgroundImageFix" result="shape"/>
<feGaussianBlur stdDeviation="1.5" result="effect1_foregroundBlur_2_34"/>
</filter>
</defs>
</svg>
